<svg width="14" height="8" viewBox="0 0 14 8" fill="none" xmlns="http://www.w3.org/2000/svg">
<path fill-rule="evenodd" clip-rule="evenodd" d="M0.390085 0.401859C0.639931 0.152087 0.978751 0.0117736 1.33203 0.0117736C1.68532 0.0117736 2.02414 0.152087 2.27398 0.401859L6.66131 4.78919L11.0486 0.401859C11.1715 0.274609 11.3185 0.173109 11.4811 0.103284C11.6436 0.0334585 11.8185 -0.00329526 11.9954 -0.00483251C12.1723 -0.00636976 12.3477 0.0273399 12.5115 0.0943301C12.6752 0.16132 12.8239 0.260249 12.949 0.385344C13.0741 0.510439 13.1731 0.659195 13.2401 0.822932C13.307 0.98667 13.3408 1.16211 13.3392 1.33901C13.3377 1.51592 13.3009 1.69074 13.2311 1.85329C13.1613 2.01584 13.0598 2.16285 12.9325 2.28576L7.60326 7.61503C7.35341 7.8648 7.01459 8.00512 6.66131 8.00512C6.30802 8.00512 5.9692 7.8648 5.71936 7.61503L0.390085 2.28576C0.140314 2.03591 0 1.69709 0 1.34381C0 0.990525 0.140314 0.651705 0.390085 0.401859Z" fill="black"/>
</svg>
