<svg width="20" height="13" viewBox="0 0 20 13" fill="none" xmlns="http://www.w3.org/2000/svg">
<path fill-rule="evenodd" clip-rule="evenodd" d="M12.7506 0.861207C12.9756 0.636336 13.2806 0.51001 13.5987 0.51001C13.9167 0.51001 14.2218 0.636336 14.4467 0.861207L19.2447 5.6592C19.4696 5.88414 19.5959 6.18919 19.5959 6.50725C19.5959 6.82532 19.4696 7.13036 19.2447 7.3553L14.4467 12.1533C14.2205 12.3718 13.9175 12.4927 13.603 12.49C13.2885 12.4872 12.9876 12.3611 12.7652 12.1387C12.5428 11.9163 12.4167 11.6154 12.414 11.3009C12.4112 10.9864 12.5321 10.6834 12.7506 10.4572L15.5011 7.70675H1.60368C1.28555 7.70675 0.98045 7.58037 0.7555 7.35542C0.53055 7.13048 0.404175 6.82538 0.404175 6.50725C0.404175 6.18912 0.53055 5.88403 0.7555 5.65908C0.98045 5.43413 1.28555 5.30775 1.60368 5.30775H15.5011L12.7506 2.5573C12.5258 2.33236 12.3994 2.02732 12.3994 1.70925C12.3994 1.39119 12.5258 1.08615 12.7506 0.861207Z" fill="white"/>
</svg>
