<svg width="64" height="64" viewBox="0 0 64 64" fill="none" xmlns="http://www.w3.org/2000/svg">
<rect x="0.5" y="0.5" width="63" height="63" rx="31.5" stroke="white"/>
<path fill-rule="evenodd" clip-rule="evenodd" d="M23 34C23.5523 34 24 34.4477 24 35V39C24 39.2652 24.1054 39.5196 24.2929 39.7071C24.4804 39.8946 24.7348 40 25 40H39C39.2652 40 39.5196 39.8946 39.7071 39.7071C39.8946 39.5196 40 39.2652 40 39V35C40 34.4477 40.4477 34 41 34C41.5523 34 42 34.4477 42 35V39C42 39.7957 41.6839 40.5587 41.1213 41.1213C40.5587 41.6839 39.7957 42 39 42H25C24.2043 42 23.4413 41.6839 22.8787 41.1213C22.3161 40.5587 22 39.7956 22 39V35C22 34.4477 22.4477 34 23 34Z" fill="white"/>
<path fill-rule="evenodd" clip-rule="evenodd" d="M26.2929 29.2929C26.6834 28.9024 27.3166 28.9024 27.7071 29.2929L32 33.5858L36.2929 29.2929C36.6834 28.9024 37.3166 28.9024 37.7071 29.2929C38.0976 29.6834 38.0976 30.3166 37.7071 30.7071L32.7071 35.7071C32.3166 36.0976 31.6834 36.0976 31.2929 35.7071L26.2929 30.7071C25.9024 30.3166 25.9024 29.6834 26.2929 29.2929Z" fill="white"/>
<path fill-rule="evenodd" clip-rule="evenodd" d="M32 22C32.5523 22 33 22.4477 33 23V35C33 35.5523 32.5523 36 32 36C31.4477 36 31 35.5523 31 35V23C31 22.4477 31.4477 22 32 22Z" fill="white"/>
</svg>
