<svg width="122" height="40" viewBox="0 0 122 40" fill="none" xmlns="http://www.w3.org/2000/svg">
<path fill-rule="evenodd" clip-rule="evenodd" d="M19.8753 0.45009C17.3263 1.35319 14.8878 5.41604 12.2272 13.1929C11.1295 16.401 10.8521 16.8003 9.24107 17.4894C5.78822 18.9663 3.30349 22.0898 1.29303 27.4807C0.16092 30.5164 -0.238551 33.8536 0.254924 36.1548C0.75006 38.4635 2.51619 39.858 4.93536 39.8505C6.58218 39.8453 7.44262 39.4667 8.57713 38.2476C10.4908 36.191 11.6198 32.9524 14.0951 22.418C15.061 18.3075 15.0939 18.2669 17.8588 17.7703L18.58 17.6406L18.4143 18.5439C18.3231 19.0405 18.2484 20.4443 18.2483 21.6632C18.2481 24.0515 18.483 24.837 19.4744 25.761C21.1629 27.3348 24.3456 27.3321 26.2137 25.7549C26.9444 25.1378 27.0711 25.1421 27.9063 25.8094C29.1106 26.7719 30.8544 26.8814 32.3841 26.0903C33.0996 25.7203 33.3572 25.7432 34.7492 26.3002C36.8959 27.159 40.2354 27.0837 41.7703 26.142L42.3941 25.7591L42.3062 26.3891C42.2578 26.7355 41.9943 27.767 41.7206 28.6812C40.4585 32.8973 40.6674 36.4728 42.2863 38.3641C43.2132 39.4471 44.1501 39.8464 45.7635 39.8464C47.3957 39.8464 48.2577 39.4667 49.3922 38.2476C51.0696 36.4449 52.437 32.8777 53.8918 26.5084C55.1423 21.0342 55.4585 19.8502 55.7601 19.515C56.0616 19.1798 57.7587 18.6632 58.8363 18.5784L59.5352 18.5236L59.6089 20.4628C59.7016 22.9032 60.0451 24.0436 61.0215 25.153C62.1285 26.4105 63.007 26.8102 64.6936 26.8235C65.788 26.8321 66.3823 26.7213 67.526 26.2958L68.9734 25.7575L70.0128 26.2672C71.3436 26.9199 72.6763 27.0687 73.6284 26.6709C74.021 26.5069 74.3678 26.3726 74.399 26.3726C74.4304 26.3726 74.2116 27.0421 73.9131 27.8603C72.803 30.9018 72.5396 34.6032 73.2813 36.7395C73.667 37.8502 74.727 39.077 75.6719 39.5062C76.6171 39.9356 78.6551 39.9676 79.6127 39.5681C81.5882 38.7442 83.2265 35.9919 84.719 30.9897C84.9766 30.1263 85.7288 27.1409 86.3905 24.3553C87.0523 21.5698 87.7112 19.1114 87.8547 18.8924C88.1373 18.4612 89.8761 17.8139 91.3358 17.5963C92.9365 17.3579 93.0149 17.7169 92.1039 21.1092C91.2726 24.205 91.5945 25.6426 93.3139 26.5112C93.9437 26.8294 94.4533 26.9267 95.4884 26.9267C96.9914 26.9267 97.7933 26.6635 98.8567 25.8212C99.2432 25.515 99.6414 25.2645 99.7415 25.2645C99.8414 25.2645 100.031 25.524 100.162 25.8413C100.616 26.9376 102.566 27.2792 103.939 26.503C104.924 25.9462 105.75 24.5358 106.45 22.2173C106.757 21.2015 107.209 19.6987 107.455 18.8778C107.868 17.499 108.551 16.3997 108.996 16.3997C109.095 16.3997 109.306 16.5303 109.466 16.6899C110.032 17.2559 109.735 19.5327 108.657 22.8995C108.347 23.8657 108.094 24.9631 108.094 25.3382C108.094 26.2775 108.753 26.9276 109.702 26.9239C111.243 26.918 111.87 26.094 112.066 23.8142C112.249 21.6961 112.99 18.1812 113.457 17.2164C114.382 15.3064 116.519 15.1169 117.256 16.8797C117.695 17.932 117.571 19.2752 116.848 21.2938C114.881 26.7843 114.815 28.3399 116.475 30.0007C117.874 31.399 119.871 31.5285 121.221 30.3084C121.956 29.6441 122.179 28.9026 121.698 28.7181C121.337 28.5796 120.991 28.8502 120.664 29.5263C120.505 29.8536 120.192 30.2414 119.969 30.3878C119.598 30.6305 119.521 30.6135 119.104 30.1967C118.453 29.5455 118.189 28.3837 118.315 26.7226C118.422 25.3 118.806 24.0859 120.208 20.7398C120.781 19.3715 120.918 18.8001 120.98 17.5078C121.049 16.0941 121.014 15.8754 120.624 15.3077C119.753 14.0395 117.847 13.5261 116.016 14.0664C115.126 14.3292 114.593 14.6068 113.611 15.3201C113.36 15.5025 113.192 15.4144 112.595 14.7869C112.032 14.1955 111.697 14.0079 111.022 13.9067C108.829 13.5778 107.33 15.6255 106.058 20.6896C105.52 22.8345 105.158 23.7285 104.574 24.3535C103.941 25.0305 103.435 25.0409 102.916 24.3873C102.553 23.9304 102.521 23.7206 102.6 22.2963C102.676 20.933 102.82 20.3872 103.637 18.3653C104.724 15.6741 104.823 14.8404 104.132 14.1915C103.747 13.8297 103.538 13.7791 102.745 13.8553C101.186 14.0051 100.65 14.8122 100.223 17.6548C99.4955 22.498 98.3495 25.0799 96.9273 25.0799C95.6507 25.0799 95.0367 23.974 95.2489 22.0573C95.318 21.4342 95.7431 19.828 96.1937 18.4879C97.0525 15.9341 97.1474 15.3433 96.8054 14.6792C96.3304 13.7567 95.8716 13.4448 94.9905 13.4448C93.9939 13.4448 93.4752 13.7595 92.8567 14.7394C92.4471 15.3884 92.2936 15.4739 91.0405 15.7528C90.2877 15.9201 89.3915 16.0304 89.0487 15.9977C88.4771 15.943 88.4208 15.8819 88.3689 15.2597C88.2957 14.3804 88.8352 12.1265 90.1075 7.99663C91.84 2.37265 92.6533 0.878002 94.1317 0.600607C96.0334 0.243799 96.7125 1.76596 95.4465 3.54686C95.0926 4.0444 94.7506 4.73124 94.6865 5.0729C94.442 6.37659 95.3606 7.41173 96.762 7.41173C97.7851 7.41173 98.4417 6.95372 98.8984 5.92115C99.76 3.97348 98.5109 1.53437 96.1045 0.465234C94.973 -0.0374745 93.1151 0.0923565 91.9879 0.752785C89.6166 2.14253 87.446 5.9459 85.0368 12.933C83.7507 16.6629 83.7767 16.6225 82.1002 17.4966C79.4535 18.8765 77.2936 20.9718 75.7746 23.6323C75.4191 24.2551 74.8089 25.0224 74.4184 25.3377C73.8214 25.8201 73.5512 25.9109 72.7144 25.9109C71.8739 25.9109 71.6406 25.8317 71.2079 25.3988C70.7493 24.9402 70.696 24.757 70.6973 23.6443C70.6987 22.5035 70.7949 22.1981 71.8746 19.9087C72.5214 18.5374 73.5698 16.2104 74.2044 14.7376C74.839 13.2647 75.5517 11.665 75.7879 11.1824C76.2745 10.189 75.859 10.2843 79.908 10.2365C81.5915 10.2167 81.9504 10.1613 82.1201 9.8948C82.4985 9.29994 82.046 9.14259 80.4554 9.31619C79.6585 9.40299 78.413 9.44676 77.6877 9.41352L76.3689 9.35294L76.9226 7.75137C77.2271 6.87043 77.5193 5.60073 77.5717 4.92977C77.6598 3.80431 77.6336 3.68611 77.2339 3.40613C76.7046 3.03529 75.7851 3.0159 74.9658 3.3583C73.9796 3.77033 73.1727 4.90115 70.9021 9.05228L70.6278 9.55406L67.5922 9.43993C64.7082 9.33152 64.5142 9.3463 63.7086 9.73616C62.6896 10.2295 62.108 11.0868 62.108 12.0955C62.108 13.1487 62.6728 13.6295 63.9103 13.6295C65.2382 13.6295 65.8449 13.0989 65.8853 11.9021C65.9051 11.3152 66.032 10.9163 66.2763 10.6718C66.7188 10.2295 68.0149 10.0315 69.3644 10.2001L70.3705 10.3257L69.7413 11.998C69.395 12.9177 68.8866 14.513 68.6111 15.5428C68.146 17.2812 68.1102 17.6783 68.1102 21.0803V24.7452L67.5562 25.1892C66.7661 25.8221 65.9106 26.0581 64.7532 25.9621C63.316 25.843 62.7509 25.2555 62.7638 23.8942C62.7719 23.0306 62.8979 22.6989 63.7356 21.3328C65.2648 18.8392 65.4293 16.9702 64.2197 15.8346C63.5674 15.2222 62.1133 15.2187 61.0823 15.827C60.278 16.3017 58.3624 16.761 57.1677 16.766C56.4245 16.7689 56.3828 16.7407 56.3828 16.2354C56.3828 14.9378 57.6963 9.47114 58.9078 5.72668C59.8835 2.7108 60.6189 1.35448 61.5539 0.84642C62.3259 0.427004 63.5408 0.507342 63.9022 1.00174C64.3238 1.57814 64.189 2.60221 63.5877 3.39284C62.079 5.37615 62.699 7.41173 64.8118 7.41173C65.8114 7.41173 66.4835 6.96111 66.9212 5.99687C67.3624 5.02488 67.3652 4.14099 66.9301 3.18285C66.1101 1.37775 64.3441 0.15275 62.5564 0.149425C59.9943 0.144439 58.0675 1.78868 56.1348 5.62936C55.397 7.09556 53.5708 11.6074 52.7846 13.9065C51.946 16.3589 51.6202 16.777 49.9856 17.5001C48.9698 17.9494 47.6083 18.8649 46.7608 19.6686L46.0959 20.299L45.9794 19.0509C45.717 16.2405 43.7913 14.2062 41.8063 14.6423C40.6035 14.9064 39.8451 16.3726 40.3192 17.5172C40.6269 18.2602 41.2589 18.7299 42.4601 19.1085C44.1278 19.6343 44.7154 20.6757 44.2899 22.3513C43.9909 23.5291 43.273 24.3993 42.1312 24.9685C40.3541 25.8539 38.8573 25.532 38.0074 24.0816C37.3431 22.9482 37.1297 21.4492 37.3739 19.6317C37.6389 17.6574 38.0144 16.8795 39.4647 15.2992C41.077 13.5421 41.9978 11.9457 42.8245 9.4741C43.5914 7.18107 43.8699 4.65847 43.4644 3.67928C43.044 2.66426 41.8379 2.51947 40.2974 3.29902C38.6912 4.11181 36.6111 7.29391 35.626 10.445C35.364 11.2838 34.8578 13.7159 34.5015 15.8499C33.3561 22.7078 33.0107 23.928 31.9658 24.8071C31.3 25.3674 31.0873 25.3754 30.4377 24.8645C29.9452 24.4771 29.9321 24.4205 30.0204 23.0638C30.1356 21.2979 30.7015 19.838 31.7451 18.6154C32.7666 17.4188 33.0687 16.4895 32.7655 15.4774C32.6148 14.9745 32.3732 14.6511 32.0066 14.4617C31.3229 14.108 31.0538 14.1124 29.9769 14.4949C29.1326 14.7948 29.0497 14.7917 27.736 14.4085C26.9856 14.1896 25.9562 13.9597 25.4483 13.8975C24.2089 13.7456 22.0533 14.2166 20.8314 14.9062C19.0071 15.9356 16.1414 16.3899 15.7783 15.7072C15.2525 14.7182 18.2933 3.93728 19.6956 1.81823C20.5036 0.597283 22.2998 0.151825 23.1178 0.969788C23.5851 1.43704 23.4613 2.44523 22.8282 3.32653C22.5148 3.76313 22.1562 4.46105 22.0313 4.87769C21.6056 6.29846 22.5904 7.44941 24.1923 7.40416C25.0487 7.37979 25.6936 6.9057 26.1062 5.99687C26.5736 4.96745 26.5501 4.12289 26.0232 3.01017C24.9122 0.664138 22.3189 -0.415891 19.8753 0.45009ZM42.8555 4.43537C43.5405 5.83989 41.2556 12.1537 39.2582 14.375C37.8288 15.9652 37.6151 15.5603 38.3636 12.68C39.439 8.54255 41.6883 3.65675 42.4098 3.8913C42.5277 3.92953 42.728 4.17442 42.8555 4.43537ZM76.6492 4.85867C76.6793 5.49657 76.5057 6.34925 76.0859 7.62726L75.4793 9.4741L74.694 9.48721C74.2622 9.4946 73.8705 9.43864 73.8238 9.3631C73.7019 9.16567 75.1346 5.22416 75.6052 4.46289C76.1786 3.53504 76.5942 3.69258 76.6492 4.85867ZM75.0358 10.4803C75.0358 10.9414 72.7675 16.3752 72.372 16.8614C71.9544 17.3749 71.8988 17.3933 71.6142 17.1143C71.3447 16.85 71.3337 16.6834 71.5252 15.7616C71.7169 14.838 73.0438 10.8742 73.3 10.4596C73.4324 10.2453 75.0358 10.2645 75.0358 10.4803ZM27.4315 15.116C28.3931 15.383 28.5848 15.8211 28.3229 17.1527C28.0317 18.6324 27.0732 21.4885 26.5258 22.5074C25.508 24.4011 23.6165 24.5293 22.3202 22.7924C21.7995 22.095 21.8239 20.272 22.3783 18.4571C23.1679 15.8717 25.2337 14.5058 27.4315 15.116ZM10.2845 19.2775C10.482 19.7918 10.4114 20.354 9.64534 24.3714C8.62588 29.7173 7.50319 34.8164 7.06494 36.0899C6.24199 38.482 4.73424 39.4253 2.93542 38.6737C1.66904 38.1446 0.793091 36.188 0.793091 33.8887C0.793091 29.6234 3.61893 23.1348 6.6313 20.4831C8.12742 19.1663 10.0042 18.5469 10.2845 19.2775ZM51.1365 19.4494C51.2907 20.0642 51.189 20.6999 49.8951 27.2037C48.1456 35.9971 47.7876 37.1849 46.5508 38.3023C45.852 38.9337 45.75 38.9681 44.8087 38.8899C43.5985 38.7897 42.963 38.3575 42.3906 37.2453C40.397 33.3712 42.9979 24.7834 47.3985 20.7091C49.1846 19.0555 50.8931 18.4796 51.1365 19.4494ZM83.0895 19.4605C83.2681 20.1723 80.8988 32.4633 80.0125 35.4221C79.3349 37.6849 78.4979 38.6888 77.1372 38.8713C75.5823 39.0798 74.3556 38.0361 73.8431 36.0687C73.4867 34.7 73.4832 33.4985 73.8298 31.5218C74.5143 27.6189 76.3122 23.9075 78.8137 21.2333C80.6912 19.2261 82.8101 18.3476 83.0895 19.4605Z" fill="white"/>
</svg>
