<svg width="54" height="33" viewBox="0 0 54 33" fill="none" xmlns="http://www.w3.org/2000/svg">
<path d="M19.2283 7.57788C19.2364 4.20342 21.5424 1.19348 24.8491 0.241409C25.8982 -0.0607652 27.6685 -0.0822867 28.7292 0.193919C34.4685 1.68924 36.4178 8.81976 32.2212 12.9681C31.0817 14.0948 30.2031 14.6055 28.7793 14.9692L27.7646 15.2285L28.3199 15.3197C31.7928 15.89 34.3257 17.1444 36.3872 19.3152C37.623 20.6163 38.1198 21.3398 38.8802 22.9454C39.8664 25.0279 40.0687 26.0856 40.1522 29.5951L40.2239 32.6154H26.8619H13.5L13.5693 29.6645C13.6302 27.0693 13.682 26.5483 13.9991 25.3427C15.4245 19.9224 19.6232 16.2316 25.4044 15.3164L25.9598 15.2285L24.945 14.9692C23.5213 14.6055 22.6427 14.0948 21.5031 12.9681C19.9984 11.4806 19.2233 9.64421 19.2283 7.57788Z" fill="#4C6752"/>
<path d="M35.8577 11.1392C35.8647 8.23548 37.8573 5.64541 40.7146 4.82614C41.6212 4.56612 43.1509 4.5476 44.0674 4.78528C49.0268 6.07201 50.7111 12.2079 47.0848 15.7776C46.1002 16.747 45.341 17.1865 44.1107 17.4995L43.2339 17.7226L43.7138 17.8011C46.7146 18.2919 48.9033 19.3713 50.6847 21.2393C51.7525 22.3589 52.1818 22.9815 52.8388 24.3631C53.6911 26.1551 53.8659 27.0653 53.938 30.0852L54 32.6842H42.4539H30.9079L30.9677 30.1449C31.0204 27.9118 31.0652 27.4634 31.3392 26.426C32.5709 21.7618 36.1989 18.5858 41.1945 17.7983L41.6743 17.7226L40.7975 17.4995C39.5672 17.1865 38.8081 16.747 37.8234 15.7776C36.5232 14.4975 35.8534 12.9173 35.8577 11.1392Z" fill="#9DDCDF"/>
<path d="M4.94984 11.1392C4.9568 8.23548 6.94946 5.64541 9.80671 4.82614C10.7133 4.56612 12.243 4.5476 13.1595 4.78528C18.1189 6.07201 19.8032 12.2079 16.177 15.7776C15.1923 16.747 14.4331 17.1865 13.2029 17.4995L12.326 17.7226L12.8059 17.8011C15.8067 18.2919 17.9954 19.3713 19.7768 21.2393C20.8446 22.3589 21.2739 22.9815 21.9309 24.3631C22.7832 26.1551 22.958 27.0653 23.0301 30.0852L23.0921 32.6842H11.546H0L0.0598626 30.1449C0.112528 27.9118 0.157277 27.4634 0.431282 26.426C1.66298 21.7618 5.29103 18.5858 10.2866 17.7983L10.7664 17.7226L9.88961 17.4995C8.65934 17.1865 7.90019 16.747 6.9155 15.7776C5.6153 14.4975 4.94552 12.9173 4.94984 11.1392Z" fill="#9DDCDF"/>
<path fill-rule="evenodd" clip-rule="evenodd" d="M23.0904 32.6157H13.5L13.5692 29.6648C13.6302 27.0696 13.682 26.5486 13.9991 25.343C14.6209 22.9785 15.7704 20.9431 17.3488 19.3237C18.2455 19.8386 19.0454 20.4726 19.7767 21.2394C20.8446 22.3591 21.2738 22.9817 21.9308 24.3633C22.7831 26.1552 22.9579 27.0654 23.03 30.0853L23.0904 32.6157ZM36.5163 19.4522C37.6586 20.6692 38.1468 21.3972 38.8801 22.9457C39.8664 25.0281 40.0687 26.0859 40.1521 29.5953L40.2239 32.6157H30.9094L30.9676 30.1451C31.0203 27.912 31.0651 27.4636 31.3391 26.4261C32.1418 23.3863 33.9625 20.9785 36.5163 19.4522Z" fill="black"/>
</svg>
