<svg width="16" height="16" viewBox="0 0 16 16" fill="none" xmlns="http://www.w3.org/2000/svg">
<path d="M15.7556 6.76701L15.6748 6.42462H8.23072V9.57538H12.6779C12.2163 11.7682 10.0735 12.9223 8.32305 12.9223C7.04967 12.9223 5.70704 12.3876 4.81836 11.5258C3.9066 10.641 3.3257 9.33686 3.3257 7.99423C3.3257 6.66699 3.92199 5.33975 4.79143 4.46646C5.65703 3.59702 6.96888 3.10459 8.27304 3.10459C9.76571 3.10459 10.8352 3.89709 11.2353 4.25872L13.4743 2.03126C12.8164 1.4542 11.0122 0 8.19994 0C6.03019 0 3.94892 0.830969 2.42933 2.34672C0.928965 3.83938 0.151855 5.9976 0.151855 7.99808C0.151855 9.99856 0.886648 12.0529 2.34084 13.5571C3.89506 15.1613 6.09559 16 8.36152 16C10.4236 16 12.3779 15.1921 13.7705 13.7264C15.1401 12.2837 15.8479 10.2871 15.8479 8.19428C15.8479 7.3133 15.7595 6.79009 15.7556 6.76701Z" fill="white"/>
</svg>
