<svg width="24" height="24" viewBox="0 0 24 24" fill="none" xmlns="http://www.w3.org/2000/svg">
<path fill-rule="evenodd" clip-rule="evenodd" d="M17.6875 6.3125C17.0542 5.68333 16.2167 5.33333 15.3333 5.33333H8.66667C7.78333 5.33333 6.94167 5.67917 6.3125 6.3125C5.68333 6.94583 5.33333 7.78333 5.33333 8.66667V15.3333C5.33333 16.2167 5.67917 17.0583 6.3125 17.6875C6.94583 18.3167 7.78333 18.6667 8.66667 18.6667H15.3333C16.2167 18.6667 17.0583 18.3208 17.6875 17.6875C18.3167 17.0542 18.6667 16.2167 18.6667 15.3333V8.66667C18.6667 7.78333 18.3208 6.94167 17.6875 6.3125ZM8.66667 4H15.3333C17.9 4 20 6.1 20 8.66667V15.3333C20 17.9 17.9 20 15.3333 20H8.66667C6.1 20 4 17.9 4 15.3333V8.66667C4 6.1 6.1 4 8.66667 4ZM15.3333 7.66659C15.3333 8.22076 15.7792 8.66659 16.3333 8.66659C16.8833 8.66659 17.3333 8.22076 17.3333 7.66659C17.3333 7.11242 16.8833 6.66659 16.3333 6.66659C15.7792 6.66659 15.3333 7.11242 15.3333 7.66659ZM14.6667 11.9999C14.6667 10.5291 13.4708 9.33326 12 9.33326C10.5292 9.33326 9.33333 10.5291 9.33333 11.9999C9.33333 13.4708 10.5292 14.6666 12 14.6666C13.4708 14.6666 14.6667 13.4708 14.6667 11.9999ZM8 11.9999C8 9.79159 9.79167 7.99992 12 7.99992C14.2083 7.99992 16 9.79159 16 11.9999C16 14.2083 14.2083 15.9999 12 15.9999C9.79167 15.9999 8 14.2083 8 11.9999Z" fill="white"/>
</svg>
