<svg width="145" height="30" viewBox="0 0 145 30" fill="none" xmlns="http://www.w3.org/2000/svg">
<g clip-path="url(#clip0_159_128)">
<path d="M17.9698 12.1492C19.6745 13.8581 21.0687 16.6566 20.2708 18.3194C18.1372 22.7657 2.21619 30.5647 0.864134 29.2144C-0.487923 27.8654 7.33304 11.9753 11.7909 9.8452C13.4575 9.04913 16.2623 10.4402 17.9766 12.141C17.9752 12.1424 17.9738 12.1451 17.9698 12.1492Z" fill="white"/>
<path d="M26.4047 10.2718C26.1283 9.24886 25.4216 8.21506 24.3664 8.09279C22.4316 7.86865 19.383 11.2811 19.6009 12.0908C19.8187 12.9004 24.1268 14.3282 25.7348 13.1749C26.564 12.5798 26.6811 11.2947 26.4088 10.2718H26.4047ZM20.4178 0.818155C21.8543 1.20668 23.3071 2.19429 23.4787 3.6696C23.7945 6.37568 18.999 10.6413 17.8607 10.337C16.7225 10.0327 14.7168 4.0065 16.3385 1.7555C17.1745 0.595365 18.98 0.432348 20.4192 0.812721C20.4178 0.812721 20.4178 0.815438 20.4178 0.818155Z" fill="white"/>
<path d="M63.2575 16.836L61.8333 16.62C60.4758 16.4203 59.6902 15.9815 59.6902 15.1841C59.6902 14.2684 60.7127 13.7006 62.2241 13.7006C63.2929 13.7006 64.163 14.1 64.9963 14.5238L65.1624 14.6081C65.3544 14.7059 65.5613 14.7548 65.7751 14.7548C66.2694 14.7548 66.7255 14.4872 66.9638 14.0552L67.0795 13.846C67.2633 13.5118 67.3028 13.1273 67.1898 12.7633C67.0768 12.4005 66.8276 12.1071 66.4872 11.9373C65.274 11.3314 63.9574 10.7867 62.2227 10.7867C58.5982 10.7867 56.2644 12.5323 56.2644 15.343C56.2644 17.6497 57.9256 19.0965 61.0708 19.5244L62.5073 19.7105C64.0255 19.9224 64.7634 20.3707 64.7634 21.0812C64.7634 21.7373 64.4081 22.6081 62.0566 22.6081C60.7604 22.6081 59.4437 22.2794 58.3749 21.6042C58.1611 21.4697 57.916 21.3977 57.6641 21.3977C57.1944 21.3977 56.7491 21.6463 56.5013 22.0457L56.421 22.1748C56.2222 22.4954 56.1623 22.8893 56.2562 23.2548C56.3502 23.6202 56.5817 23.9218 56.9084 24.1038C58.7711 25.1485 60.9224 25.5193 62.0552 25.5193C65.8337 25.5193 68.1715 23.8674 68.1715 20.9603C68.1756 18.6373 66.5199 17.3033 63.2575 16.836ZM107.186 21.914C106.914 21.6097 106.522 21.4358 106.114 21.4358C105.837 21.4358 105.568 21.5146 105.332 21.6626C104.563 22.149 103.721 22.4071 102.895 22.4071C100.625 22.4071 98.9774 20.618 98.9774 18.1537C98.9774 15.6894 100.625 13.9003 102.895 13.9003C103.766 13.9003 104.546 14.1367 105.279 14.623C105.847 14.9993 106.661 14.9029 107.128 14.4057L107.249 14.2766C107.569 13.937 107.72 13.4751 107.666 13.0119C107.613 12.5568 107.363 12.1506 106.984 11.8993C105.867 11.1603 104.484 10.7704 102.982 10.7704C98.6248 10.7704 95.5816 13.8066 95.5816 18.1523C95.5816 22.4995 98.6248 25.5356 102.982 25.5356C104.49 25.5356 105.882 25.1376 107.007 24.3837C107.383 24.1323 107.63 23.7302 107.686 23.2792C107.743 22.8255 107.6 22.3704 107.295 22.0308L107.186 21.914ZM36.678 5.77661C35.5438 5.77661 34.656 6.67456 34.656 7.81976C34.656 8.97039 35.5247 9.8371 36.678 9.8371C37.8258 9.8371 38.7258 8.95137 38.7258 7.81976C38.7258 6.67456 37.8258 5.77661 36.678 5.77661ZM37.2893 10.8913H36.0966C35.5124 10.8913 35.0386 11.364 35.0386 11.9468V24.1215C35.0386 24.7043 35.5124 25.177 36.0966 25.177H37.2893C37.8734 25.177 38.3473 24.7043 38.3473 24.1215V11.9468C38.3473 11.364 37.8734 10.8913 37.2893 10.8913ZM76.4527 22.3432C75.1142 22.3378 73.5579 21.2918 73.5579 19.4592V13.9669H76.4622C77.0463 13.9669 77.5202 13.4941 77.5202 12.9113V11.9468C77.5202 11.364 77.0463 10.8913 76.4622 10.8913H73.5579V7.72195C73.5579 7.13916 73.0841 6.66641 72.5 6.66641H71.2419C70.6578 6.66641 70.1839 7.13916 70.1839 7.72195V19.2622C70.1839 22.585 72.711 25.5221 76.2103 25.5221H76.2117C76.5602 25.5221 76.8897 25.3862 77.1389 25.1376C77.3867 24.8904 77.5242 24.5616 77.5242 24.2125V23.3988C77.5215 22.8133 77.0409 22.3459 76.4527 22.3432ZM47.5462 10.7717C43.3116 10.7717 40.9493 14.1516 40.9493 17.0425V24.1215C40.9493 24.7043 41.4231 25.177 42.0072 25.177H43.2136C43.7977 25.177 44.2715 24.7043 44.2715 24.1215V17.5736C44.2715 15.381 45.6032 13.9288 47.5448 13.9288C49.4864 13.9288 50.8181 15.381 50.8181 17.5736V24.1215C50.8181 24.7043 51.2919 25.177 51.876 25.177H53.0824C53.6665 25.177 54.1403 24.7043 54.1403 24.1215V17.0425C54.1431 14.1503 51.7821 10.7717 47.5462 10.7717ZM134.656 10.9184C134.198 10.8179 133.047 10.7717 132.451 10.7717C132.398 10.7717 132.345 10.7731 132.293 10.7731C129.014 10.7731 125.986 13.4398 125.986 17.1158C125.986 17.1185 125.985 17.1226 125.985 17.1253V24.1215C125.985 24.7043 126.458 25.177 127.042 25.177H128.249C128.833 25.177 129.307 24.7043 129.307 24.1215V17.2367C129.307 15.2357 130.739 13.9302 132.494 13.9302C132.816 13.9356 133.16 13.9709 133.498 14.0375C133.59 14.0552 133.683 14.0647 133.777 14.0647C134.447 14.0647 135.027 13.6028 135.183 12.9534C135.269 12.5962 135.333 12.3313 135.393 12.0881C135.453 11.8449 135.412 11.5705 135.273 11.3477C135.133 11.1276 134.914 10.9741 134.656 10.9184ZM143.505 13.9669C144.09 13.9669 144.563 13.4941 144.563 12.9113V11.9468C144.563 11.364 144.09 10.8913 143.505 10.8913H140.601V7.72195C140.601 7.13916 140.127 6.66641 139.542 6.66641H138.284C137.7 6.66641 137.226 7.13916 137.226 7.72195V19.2622C137.226 22.585 139.753 25.5221 143.252 25.5221H143.254C143.603 25.5221 143.932 25.3862 144.181 25.1376C144.429 24.8904 144.566 24.5616 144.566 24.2125V23.3988C144.566 22.8119 144.085 22.3446 143.497 22.3432C142.159 22.3378 140.603 21.2918 140.603 19.4592V13.9669H143.505ZM120.478 11.9047C120.477 11.9033 120.474 11.902 120.473 11.9006C119.356 11.1616 117.973 10.7717 116.471 10.7717C116.445 10.7717 116.419 10.7731 116.393 10.7731C116.368 10.7731 116.342 10.7717 116.316 10.7717C114.814 10.7717 113.429 11.1616 112.314 11.9006C112.313 11.902 112.31 11.9033 112.309 11.9047C110.299 13.1667 109.072 15.396 109.072 18.155C109.072 21.0445 110.419 23.3539 112.6 24.5779C113.617 25.177 114.825 25.5343 116.127 25.5356C118.504 25.537 119.94 24.1935 120.391 23.6066V24.112C120.391 24.6948 120.865 25.1675 121.449 25.1675H122.655C123.24 25.1675 123.713 24.6948 123.713 24.112V18.1537C123.715 15.3946 122.488 13.1654 120.478 11.9047ZM117.722 22.1856C117.336 22.3133 116.942 22.3867 116.551 22.403C116.523 22.4044 116.494 22.4044 116.466 22.4057C116.441 22.4057 116.418 22.4071 116.393 22.4071C116.369 22.4071 116.346 22.4057 116.321 22.4057C116.293 22.4057 116.264 22.4044 116.236 22.403C115.845 22.3867 115.45 22.3133 115.065 22.1856C113.504 21.6355 112.468 20.1085 112.468 18.1537C112.468 15.847 113.913 14.1312 115.959 13.922C115.97 13.9207 115.981 13.9207 115.992 13.9193C116.038 13.9152 116.084 13.9112 116.132 13.9085C116.158 13.9071 116.185 13.9057 116.211 13.9044C116.256 13.903 116.302 13.9017 116.347 13.9017C116.364 13.9017 116.379 13.9003 116.395 13.9003C116.411 13.9003 116.426 13.9003 116.443 13.9017C116.489 13.9017 116.534 13.903 116.579 13.9044C116.606 13.9057 116.632 13.9071 116.658 13.9085C116.704 13.9112 116.752 13.9139 116.798 13.9193C116.809 13.9207 116.82 13.9207 116.831 13.922C118.877 14.1312 120.322 15.8456 120.322 18.1537C120.319 20.1072 119.283 21.6355 117.722 22.1856ZM90.3613 11.9047C90.3599 11.9033 90.3572 11.902 90.3559 11.9006C89.2393 11.1616 87.856 10.7717 86.3541 10.7717C86.3283 10.7717 86.3024 10.7731 86.2765 10.7731C86.2507 10.7731 86.2248 10.7717 86.1989 10.7717C84.6971 10.7717 83.3124 11.1616 82.1972 11.9006C82.1959 11.902 82.1931 11.9033 82.1918 11.9047C80.1821 13.1667 78.9553 15.396 78.9553 18.155C78.9553 21.0445 80.3019 23.3539 82.4831 24.5779C83.5003 25.177 84.708 25.5343 86.0097 25.5356C88.387 25.537 89.8235 24.1935 90.2742 23.6066V24.112C90.2742 24.6948 90.748 25.1675 91.3321 25.1675H92.5385C93.1226 25.1675 93.5964 24.6948 93.5964 24.112V18.1537C93.5978 15.3946 92.371 13.1654 90.3613 11.9047ZM87.6054 22.1856C87.2188 22.3133 86.8253 22.3867 86.4345 22.403C86.4059 22.4044 86.3773 22.4044 86.3487 22.4057C86.3242 22.4057 86.301 22.4071 86.2765 22.4071C86.252 22.4071 86.2289 22.4057 86.2044 22.4057C86.1758 22.4057 86.1472 22.4044 86.1186 22.403C85.7278 22.3867 85.333 22.3133 84.9476 22.1856C83.3872 21.6355 82.3511 20.1085 82.3511 18.1537C82.3511 15.847 83.7957 14.1312 85.8422 13.922C85.8531 13.9207 85.864 13.9207 85.8749 13.9193C85.9212 13.9152 85.9675 13.9112 86.0151 13.9085C86.041 13.9071 86.0682 13.9057 86.0941 13.9044C86.139 13.903 86.1853 13.9017 86.2302 13.9017C86.2466 13.9017 86.2616 13.9003 86.2779 13.9003C86.2942 13.9003 86.3092 13.9003 86.3256 13.9017C86.3718 13.9017 86.4168 13.903 86.4617 13.9044C86.4889 13.9057 86.5148 13.9071 86.5407 13.9085C86.587 13.9112 86.6346 13.9139 86.6809 13.9193C86.6918 13.9207 86.7027 13.9207 86.7136 13.922C88.7601 14.1312 90.2047 15.8456 90.2047 18.1537C90.202 20.1072 89.1658 21.6355 87.6054 22.1856Z" fill="white"/>
</g>
<defs>
<clipPath id="clip0_159_128">
<rect width="143.855" height="28.7413" fill="white" transform="translate(0.708984 0.629395)"/>
</clipPath>
</defs>
</svg>
