<svg width="131" height="20" viewBox="0 0 131 20" fill="none" xmlns="http://www.w3.org/2000/svg">
<path d="M10.0036 0.27971C15.3965 0.27971 19.789 4.67229 19.789 10.1087C19.789 15.545 15.3965 19.9376 10.0036 19.9376C4.61072 19.9376 0.21814 15.5885 0.21814 10.1087C0.21814 4.6288 4.61072 0.27971 10.0036 0.27971ZM86.7215 0.0622559V17.2847C86.7215 18.5894 87.2434 18.9373 88.2437 19.1983L88.2872 19.4157H82.7639V17.2847C82.1115 18.8503 80.7633 19.8071 79.0237 19.8071C76.0663 19.8071 74.1092 17.1107 74.1092 13.1095C74.1092 10.848 74.7615 8.9344 75.9793 7.4992C77.1535 6.10749 78.7627 5.36815 80.5458 5.36815C81.4157 5.36815 82.155 5.54211 82.7639 5.93353V3.58502C82.7639 3.06313 82.6334 2.7152 82.3725 2.45426C82.0245 2.14982 81.4591 2.01935 80.5893 2.10633H80.5458V1.88887L86.7215 0.0622559ZM107.684 5.41164V17.2847C107.684 18.5894 108.206 18.9373 109.206 19.1983V19.4157H103.683V17.2412C103.031 18.8068 101.595 19.8071 99.9863 19.8071C98.0727 19.8071 96.8549 18.9373 96.3765 17.2412L96.2895 16.8063C96.2026 16.3713 96.1591 15.9364 96.1591 15.5015V9.15186C96.1591 7.76015 95.8546 7.32524 94.6369 7.23826H94.5934V7.0208L100.117 5.41164V15.4145C100.117 16.8932 100.769 17.7196 101.987 17.7196C102.726 17.7196 103.335 17.3281 103.683 16.6758V9.15186C103.683 7.71666 103.422 7.28175 102.422 7.19477H102.378V6.97731L107.684 5.41164ZM67.803 5.36815C69.2817 5.36815 70.7169 5.89004 71.6737 6.80335C72.761 7.84713 73.3263 9.36931 73.3698 11.3699V11.4134H65.0631C64.8891 14.2838 66.6722 16.6323 69.0207 16.7193C70.7169 16.8497 72.1956 15.806 73.0219 14.1098L73.2394 14.1968C72.761 17.3716 70.8909 19.7636 67.629 19.7636C63.9323 19.7636 61.8447 16.6758 61.7578 12.8051V11.8048C61.9317 10.1087 62.4536 8.58647 63.3669 7.45571C63.9323 6.75986 64.5847 6.23797 65.3675 5.89004C66.0199 5.54211 66.9767 5.36815 67.7595 5.36815H67.803ZM125.341 5.41164C127.69 5.41164 129.125 6.89033 129.125 9.4128V17.5021C129.125 18.4589 129.56 18.9373 130.647 19.1983H130.691V19.4157H125.124V9.54327C125.124 7.9776 124.559 7.19477 123.384 7.19477C122.428 7.19477 121.949 7.89062 121.688 8.49949C121.732 8.80393 121.775 9.10837 121.775 9.4128V17.6326C121.775 18.6329 122.08 18.9808 122.949 19.1983H122.993V19.4157H117.818V9.54327C117.818 7.9776 117.209 7.19477 116.078 7.19477C115.165 7.19477 114.686 7.84713 114.469 8.36902V17.6761C114.469 18.6764 114.773 19.0243 115.643 19.2417H115.686V19.4592H110.511V9.10837C110.511 7.71666 110.163 7.28175 108.989 7.19477H108.945V6.97731L114.469 5.45513V7.76015C115.034 6.28146 116.339 5.41164 117.992 5.41164C119.862 5.41164 121.166 6.32495 121.601 7.9776C122.167 6.41193 123.602 5.41164 125.341 5.41164ZM46.0141 0.932074L51.1895 13.066L56.3649 0.932074H61.9317L61.8882 1.14953L61.825 1.16359C60.866 1.38218 60.3661 1.74082 60.3661 2.93266V17.7196C60.453 18.6764 60.9749 18.9808 61.8882 19.1983H61.9317V19.4157H54.8427V19.1983H54.8862C55.7995 18.9808 56.3214 18.6764 56.4084 17.7196V3.32407L49.5803 19.3722H49.1889L42.5348 3.75898V17.3716C42.5348 18.5894 43.0567 18.9373 44.057 19.1548H44.1005V19.3722H40.0123V19.1548H40.0558C41.0561 18.9373 41.578 18.5894 41.578 17.3716V2.93266C41.578 1.71491 41.0561 1.36698 40.0558 1.14953H40.0123V0.932074H46.0141ZM93.4626 5.41164V17.2847L93.4633 17.365C93.4846 18.6038 94.0054 18.9427 94.9848 19.1983L95.0283 19.4157H89.505V9.15186C89.505 7.76015 89.2005 7.32524 87.9828 7.23826H87.9393V7.0208L93.4626 5.41164ZM25.6603 0.845092C28.3133 0.845092 30.5313 5.02022 30.5313 10.1087C30.5313 15.2406 28.3568 19.3722 25.6603 19.3722C22.9639 19.3722 20.7893 15.2406 20.7893 10.1087C20.7893 4.97673 22.9639 0.845092 25.6603 0.845092ZM33.1408 1.80189C34.141 1.80189 34.8804 5.54211 34.8804 10.1087C34.8804 14.6752 34.0976 18.4154 33.1408 18.4154C32.1935 18.4154 31.4168 14.7496 31.4014 10.2454L31.4011 10.1087C31.4011 5.54211 32.184 1.80189 33.1408 1.80189ZM81.1982 6.15098C79.4586 6.15098 78.3713 8.456 78.3713 12.0223C78.3713 13.7184 78.6757 15.1971 79.1976 16.1974C79.676 17.1542 80.3719 17.6761 81.1547 17.6761C81.9375 17.6761 82.5029 17.3281 82.7639 16.6758V7.10778C82.4594 6.49891 81.8941 6.15098 81.1982 6.15098ZM67.7595 6.19447C66.1938 6.19447 65.2805 8.06458 65.1501 10.674V10.7175H69.8906C69.9775 8.67346 69.6296 7.32524 68.9773 6.67287C68.6293 6.36844 68.2379 6.19447 67.7595 6.19447ZM91.3316 0.192729C92.5928 0.192729 93.5496 1.14953 93.5496 2.41076C93.5496 3.672 92.5928 4.6288 91.3316 4.6288C90.0703 4.6288 89.1135 3.672 89.1135 2.41076C89.1135 1.14953 90.0703 0.192729 91.3316 0.192729Z" fill="white"/>
</svg>
