<svg width="123" height="30" viewBox="0 0 123 30" fill="none" xmlns="http://www.w3.org/2000/svg">
<path d="M48.2473 10.8933H52.0978V22.9932H48.2473V10.8933Z" fill="white"/>
<path d="M52.9083 10.8933H56.6158V12.5504H56.6873C57.5814 11.251 58.7378 10.5476 60.4186 10.5476C63.0651 10.5476 64.6268 12.4431 64.6268 15.1372V23.0052H60.7763V15.9121C60.7763 14.6365 60.1325 13.7663 58.8808 13.7663C57.6052 13.7663 56.7588 14.8273 56.7588 16.3174V23.0052H52.9083V10.8933Z" fill="white"/>
<path d="M50.1785 9.97549C51.4558 9.97549 52.4912 8.94006 52.4912 7.66279C52.4912 6.38553 51.4558 5.3501 50.1785 5.3501C48.9013 5.3501 47.8658 6.38553 47.8658 7.66279C47.8658 8.94006 48.9013 9.97549 50.1785 9.97549Z" fill="white"/>
<path d="M91.7118 10.7146C91.6045 10.7026 91.4734 10.7026 91.3303 10.7026C89.864 10.7026 88.8746 11.3464 88.0163 12.7769H87.9447V10.8934H84.2611V22.9933H88.1116V17.5573C88.1116 15.0419 89.5064 13.8737 91.7118 14.0763V10.7146Z" fill="white"/>
<path d="M110.618 15.3637C109.081 15.0776 107.71 14.9584 107.71 14.112C107.71 13.361 108.437 13.0034 109.391 13.0034C110.452 13.0034 111.191 13.3371 111.334 14.422H114.874C114.684 12.0377 112.848 10.5476 109.414 10.5476C106.553 10.5476 104.193 11.8709 104.193 14.422C104.193 17.2592 106.434 17.8195 108.544 18.1771C110.154 18.4632 111.62 18.5824 111.62 19.6673C111.62 20.4421 110.893 20.8713 109.724 20.8713C108.568 20.8713 107.793 20.3825 107.555 19.3812H103.883C104.157 21.8727 106.339 23.3747 109.748 23.3747C112.919 23.3747 115.256 22.0038 115.256 19.3573C115.244 16.2578 112.74 15.7214 110.618 15.3637Z" fill="white"/>
<path d="M97.8987 20.5851C96.3132 20.5851 95.4192 19.5719 95.1807 17.9387H103.871C103.895 15.4829 103.192 13.3729 101.749 12.0496C100.712 11.1079 99.3412 10.5356 97.6126 10.5356C93.929 10.5356 91.4017 13.3013 91.4017 16.9134C91.4017 20.5732 93.8575 23.3389 97.8511 23.3389C99.3889 23.3389 100.617 22.9336 101.63 22.2303C102.691 21.5031 103.406 20.454 103.657 19.3692H99.9015C99.5796 20.1321 98.924 20.5851 97.8987 20.5851ZM97.6842 13.2775C98.9359 13.2775 99.83 14.1954 99.973 15.6379H95.2046C95.4668 14.2073 96.2298 13.2775 97.6842 13.2775Z" fill="white"/>
<path d="M122.027 20.1441C121.848 20.156 121.61 20.156 121.383 20.156C120.561 20.156 120.036 19.9176 120.036 18.9758V13.3014H122.027V10.8933H120.036V7.06665H116.281V10.8933H115.101V13.3014H116.281V19.7984C116.281 22.3972 117.89 23.1363 120.132 23.1363C120.99 23.1363 121.634 23.0767 122.027 22.9933V20.1441Z" fill="white"/>
<path d="M71.5054 20.1441C71.3504 20.1441 71.1716 20.156 71.0047 20.156C70.1822 20.156 69.6576 19.9176 69.6576 18.9758V13.3014H71.5054V10.8933H69.6576V7.06665H65.9025V10.8933H64.6508V13.3014H65.9025V19.7984C65.9025 22.3972 67.5118 23.1363 69.753 23.1363C70.5159 23.1363 71.112 23.0886 71.5054 23.0171V20.1441Z" fill="white"/>
<path d="M71.3147 16.9254C71.3147 13.3133 73.842 10.5476 77.5256 10.5476C79.2542 10.5476 80.6251 11.1198 81.6622 12.0616C83.1047 13.3848 83.808 15.483 83.7842 17.9506H75.0937C75.3321 19.5838 76.2262 20.5971 77.8117 20.5971C78.825 20.5971 79.4926 20.1441 79.8145 19.3931H83.5696C83.3073 20.4779 82.604 21.515 81.543 22.2541C80.5297 22.9575 79.3018 23.3628 77.764 23.3628C73.7704 23.3509 71.3147 20.5852 71.3147 16.9254ZM79.8979 15.6498C79.7548 14.2074 78.8608 13.2895 77.609 13.2895C76.1427 13.2895 75.3917 14.2074 75.1295 15.6498H79.8979Z" fill="white"/>
<path d="M34.7051 6.10107H41.3928C43.4433 6.10107 44.9572 6.67329 46.0063 7.66274C47.0911 8.67604 47.711 10.1185 47.711 11.8232C47.711 15.0658 45.4698 17.3546 41.9889 17.3546H38.6033V23.0052H34.7051V6.10107ZM41.5597 14.0405C43.0737 14.0405 43.9201 13.1465 43.9201 11.7994C43.9201 10.4523 43.0499 9.62972 41.5597 9.62972H38.6033V14.0525H41.5597V14.0405Z" fill="white"/>
<path d="M14.8205 0.51001C6.80947 0.51001 0.336304 6.9951 0.336304 14.9942C0.336304 21.1335 4.15106 26.3788 9.5394 28.4889C9.40827 27.3444 9.30098 25.5801 9.58709 24.3284C9.84935 23.1959 11.2799 17.128 11.2799 17.128C11.2799 17.128 10.8507 16.2578 10.8507 14.9822C10.8507 12.9676 12.019 11.4655 13.4734 11.4655C14.7132 11.4655 15.3092 12.3954 15.3092 13.504C15.3092 14.7438 14.5224 16.6035 14.1052 18.3321C13.7595 19.7745 14.8324 20.9547 16.251 20.9547C18.826 20.9547 20.8049 18.2367 20.8049 14.3266C20.8049 10.8575 18.3133 8.43755 14.7489 8.43755C10.6242 8.43755 8.20424 11.5251 8.20424 14.72C8.20424 15.9598 8.68108 17.2949 9.27714 18.0221C9.39635 18.1652 9.40827 18.2963 9.37251 18.4394C9.26522 18.8924 9.01488 19.8818 8.96719 20.0845C8.90759 20.3467 8.75261 20.4064 8.47843 20.2752C6.69026 19.4169 5.56967 16.7704 5.56967 14.6485C5.56967 10.0827 8.88374 5.88643 15.1423 5.88643C20.1611 5.88643 24.0712 9.46277 24.0712 14.2551C24.0712 19.25 20.9241 23.2674 16.5609 23.2674C15.0946 23.2674 13.7118 22.5045 13.2469 21.5985C13.2469 21.5985 12.5197 24.3642 12.3409 25.0437C12.019 26.3073 11.1368 27.8809 10.5408 28.8465C11.8998 29.2637 13.3303 29.4902 14.8324 29.4902C22.8314 29.4902 29.3165 23.0052 29.3165 15.0061C29.3046 6.9951 22.8195 0.51001 14.8205 0.51001Z" fill="white"/>
</svg>
