<svg width="26" height="20" viewBox="0 0 26 20" fill="none" xmlns="http://www.w3.org/2000/svg">
<path fill-rule="evenodd" clip-rule="evenodd" d="M16.2929 0.792893C16.6834 0.402369 17.3166 0.402369 17.7071 0.792893L20.7071 3.79289C21.0976 4.18342 21.0976 4.81658 20.7071 5.20711L17.7071 8.20711C17.3166 8.59763 16.6834 8.59763 16.2929 8.20711C15.9024 7.81658 15.9024 7.18342 16.2929 6.79289L18.5858 4.5L16.2929 2.20711C15.9024 1.81658 15.9024 1.18342 16.2929 0.792893Z" fill="black"/>
<path fill-rule="evenodd" clip-rule="evenodd" d="M5.99701 3.50001L6 3.5L19 3.5C19.5523 3.5 20 3.94772 20 4.5C20 5.05229 19.5523 5.5 19 5.5H6.00158C4.9414 5.50354 3.92563 5.92626 3.17594 6.67595C2.42625 7.42564 2.00354 8.44141 2 9.50158V10.5C2 11.0523 1.55228 11.5 1 11.5C0.447715 11.5 0 11.0523 0 10.5V9.49702C0.0047458 7.90797 0.6381 6.38536 1.76173 5.26173C2.88536 4.1381 4.40797 3.50475 5.99701 3.50001ZM9.70711 11.7929C10.0976 12.1834 10.0976 12.8166 9.70711 13.2071L7.41421 15.5L9.70711 17.7929C10.0976 18.1834 10.0976 18.8166 9.70711 19.2071C9.31658 19.5976 8.68342 19.5976 8.29289 19.2071L5.29289 16.2071C4.90237 15.8166 4.90237 15.1834 5.29289 14.7929L8.29289 11.7929C8.68342 11.4024 9.31658 11.4024 9.70711 11.7929Z" fill="black"/>
<path fill-rule="evenodd" clip-rule="evenodd" d="M25 8.5C25.5523 8.5 26 8.94772 26 9.5V10.5L26 10.503C25.9953 12.092 25.3619 13.6146 24.2383 14.7383C23.1146 15.8619 21.592 16.4952 20.003 16.5L20 16.5H7C6.44772 16.5 6 16.0523 6 15.5C6 14.9477 6.44772 14.5 7 14.5H19.9984C21.0586 14.4965 22.0744 14.0737 22.8241 13.3241C23.5737 12.5744 23.9964 11.5587 24 10.4986V9.5C24 8.94772 24.4477 8.5 25 8.5Z" fill="black"/>
</svg>
