<svg width="45" height="48" viewBox="0 0 45 48" fill="none" xmlns="http://www.w3.org/2000/svg">
<path fill-rule="evenodd" clip-rule="evenodd" d="M1.37916 1.21936C1.89424 0.712631 2.53238 0.347967 3.23252 0.160136C4.01711 -0.0503597 27.0701 -0.0547818 27.879 0.155437C29.2968 0.523914 30.3442 1.49994 30.86 2.93333C30.9367 3.14654 30.9859 3.29092 31.0189 3.6453L31.0189 13.3583V35.3206L31.0189 39.5645H0.0245154L0.0756191 3.52651L0.290454 2.93333C0.56308 2.18068 0.831755 1.75781 1.37916 1.21936ZM6.69848 6.10403C6.69848 7.14501 7.74922 7.80701 8.66938 7.34572C9.675 6.84165 9.675 5.36636 8.66938 4.86234C8.48957 4.77213 8.21563 4.69839 8.06064 4.69839C7.32808 4.69839 6.69848 5.348 6.69848 6.10403ZM15.5759 7.50962C17.4456 7.50962 17.7806 7.48751 18.0635 7.34572C19.0691 6.84165 19.0691 5.36636 18.0635 4.86234C17.5744 4.61713 13.5774 4.61713 13.0884 4.86234C12.3631 5.22579 12.1013 6.19596 12.5482 6.86337C12.9516 7.46584 13.1566 7.50962 15.5759 7.50962ZM31.0189 42.3763H0L0.0619933 43.4592C0.127773 44.6078 0.332354 45.3981 0.724296 46.0176C1.04443 46.5234 1.74919 47.1853 2.26755 47.4668C2.30517 47.4872 2.34069 47.5069 2.37484 47.5258L2.37515 47.5259L2.37575 47.5263C2.45325 47.5691 2.52376 47.6082 2.59598 47.6436C3.32265 48.0006 4.22471 48.0006 14.2003 47.9999L15.5759 47.9999L16.9516 47.9999C26.9272 48.0006 27.8292 48.0006 28.5559 47.6436C28.6281 47.6082 28.6986 47.5691 28.7761 47.5263C28.8105 47.5072 28.8463 47.4874 28.8843 47.4668C29.4027 47.1853 30.1074 46.5234 30.4276 46.0176C30.7264 45.5452 30.9164 44.9735 31.0189 44.2194V42.3763Z" fill="#4C6752"/>
<path d="M31.3252 14.2374V17.421C32.0994 17.0383 35.4758 15.2338 35.6495 15.1029C35.8202 14.9744 35.8184 14.9619 35.5867 14.6494C35.3864 14.3794 34.9792 13.5493 34.6376 12.7148C34.5597 12.5244 34.4845 12.5541 32.9045 13.3992C32.1775 13.788 31.5513 14.1202 31.3252 14.2374Z" fill="#9DDCDF"/>
<path d="M31.3252 25.4214V22.5895H34.4644V25.4214H31.3252Z" fill="#9DDCDF"/>
<path d="M31.3252 30.5898V33.7755C31.557 33.8946 32.1818 34.2252 32.9045 34.6117C34.4845 35.4567 34.5597 35.4865 34.6376 35.2961C34.9792 34.4615 35.3864 33.6315 35.5867 33.3615C35.8184 33.0489 35.8202 33.0365 35.6495 32.9079C35.4758 32.777 32.0994 30.9725 31.3252 30.5898Z" fill="#9DDCDF"/>
<path d="M37.469 9.24758C37.924 8.24876 38.7082 7.52616 39.6814 7.20889C41.0634 6.75842 42.557 7.18548 43.5685 8.32013C43.6917 8.45842 43.9241 8.84762 44.0849 9.18509C44.3572 9.75638 44.3774 9.86701 44.3774 10.7898C44.3774 11.7056 44.3555 11.8277 44.091 12.3946C42.7579 15.251 38.8375 15.251 37.5044 12.3946C37.2398 11.8277 37.218 11.7056 37.218 10.7898C37.218 9.90713 37.2454 9.73835 37.469 9.24758Z" fill="#9DDCDF"/>
<path d="M37.469 22.4632C37.924 21.4644 38.7082 20.7417 39.6814 20.4245C41.0634 19.974 42.557 20.4011 43.5685 21.5357C43.6917 21.674 43.9241 22.0632 44.0849 22.4007C44.3572 22.972 44.3774 23.0826 44.3774 24.0054C44.3774 24.9212 44.3555 25.0433 44.091 25.6102C42.7579 28.4666 38.8375 28.4666 37.5044 25.6102C37.2398 25.0433 37.218 24.9212 37.218 24.0054C37.218 23.1227 37.2454 22.9539 37.469 22.4632Z" fill="#9DDCDF"/>
<path d="M37.469 35.6788C37.924 34.6799 38.7082 33.9573 39.6814 33.6401C41.0634 33.1896 42.557 33.6166 43.5685 34.7513C43.6917 34.8896 43.9241 35.2788 44.0849 35.6163C44.3572 36.1876 44.3774 36.2982 44.3774 37.221C44.3774 38.1368 44.3555 38.2589 44.091 38.8258C42.7579 41.6822 38.8375 41.6822 37.5044 38.8258C37.2398 38.2589 37.218 38.1368 37.218 37.221C37.218 36.3383 37.2454 36.1695 37.469 35.6788Z" fill="#9DDCDF"/>
<path fill-rule="evenodd" clip-rule="evenodd" d="M31.0383 31.5581C31.034 31.7123 31.0303 31.8773 31.0274 32.0485L31.0017 33.5898L26.0545 31.0318L21.1075 28.4739L20.4572 29.0922C19.004 30.4742 17.1561 31.1611 15.2195 31.0393C14.1408 30.9713 13.4359 30.786 12.4952 30.3228C10.6082 29.3937 9.29005 27.7659 8.77318 25.7266C8.60803 25.075 8.58229 24.7519 8.61724 23.7668C8.66581 22.3982 8.90893 21.5344 9.55628 20.4316C10.0127 19.6539 11.1561 18.4992 11.9094 18.0552C14.7396 16.3871 18.1089 16.7548 20.4572 18.9881L21.1075 19.6064L26.0545 17.0485L31.0017 14.4905L31.0274 16.0317C31.0303 16.203 31.034 16.3679 31.0383 16.5221V17.6784C31.0341 17.6759 31.0297 17.6748 31.0251 17.6751C30.9606 17.6797 29.0097 18.6701 26.6899 19.8759C24.3702 21.0818 22.4522 22.0883 22.4278 22.1126C22.4034 22.1369 22.4104 22.2643 22.4435 22.3955L22.5035 22.6342H26.7761H31.0383V25.446H26.7761H22.5035L22.4435 25.6847C22.4104 25.816 22.4033 25.9432 22.4276 25.9674C22.5106 26.0502 30.5424 30.1872 31.0383 30.4047V31.5581ZM11.4149 24.0515C11.4149 22.0832 12.6392 20.4766 14.5248 19.9708C16.2524 19.5072 18.1996 20.2648 19.1528 21.7713C19.9846 23.086 19.9846 24.9943 19.1528 26.309C18.2021 27.8116 16.2924 28.563 14.5652 28.1141C12.6599 27.619 11.4149 26.0134 11.4149 24.0515Z" fill="black"/>
</svg>
