<svg width="55" height="33" viewBox="0 0 55 33" fill="none" xmlns="http://www.w3.org/2000/svg">
<path d="M43.2809 14.7215C43.6549 14.4374 43.9324 14.0411 44.0743 13.5881C44.2163 13.1351 44.2157 12.6482 44.0725 12.1956C43.9293 11.7431 43.6508 11.3475 43.276 11.0645C42.9012 10.7814 42.4489 10.625 41.9826 10.6173L32.9247 10.2684C32.8802 10.2653 32.8375 10.2491 32.8017 10.2218C32.766 10.1945 32.7388 10.1572 32.7234 10.1145L29.5934 1.49563C29.4361 1.05714 29.1505 0.678498 28.7752 0.410984C28.3999 0.14347 27.953 0 27.495 0C27.037 0 26.5901 0.14347 26.2148 0.410984C25.8395 0.678498 25.5539 1.05714 25.3966 1.49563L22.2767 10.1453C22.2612 10.188 22.234 10.2252 22.1983 10.2525C22.1626 10.2798 22.1199 10.296 22.0754 10.2992L13.0175 10.648C12.5511 10.6558 12.0988 10.8122 11.724 11.0952C11.3492 11.3783 11.0707 11.7739 10.9275 12.2264C10.7844 12.679 10.7837 13.1659 10.9257 13.6189C11.0677 14.0719 11.3451 14.4682 11.7192 14.7523L18.8246 20.4469C18.8602 20.4754 18.8867 20.5139 18.901 20.5577C18.9154 20.6015 18.9168 20.6485 18.9051 20.6931L16.4595 29.5274C16.3328 29.9773 16.345 30.4561 16.4946 30.8986C16.6443 31.3411 16.924 31.7258 17.2957 32.0005C17.6674 32.2752 18.1131 32.4265 18.5721 32.4338C19.0312 32.4411 19.4813 32.304 19.8612 32.0413L27.3692 26.911C27.4062 26.885 27.4501 26.871 27.495 26.871C27.5399 26.871 27.5838 26.885 27.6208 26.911L35.1288 32.0413C35.5036 32.313 35.9521 32.459 36.412 32.459C36.8719 32.459 37.3204 32.313 37.6952 32.0413C38.067 31.7692 38.3469 31.3863 38.4965 30.9453C38.6461 30.5043 38.658 30.0269 38.5305 29.5787L36.0648 20.7136C36.0517 20.6691 36.0524 20.6216 36.0668 20.5775C36.0812 20.5335 36.1086 20.495 36.1453 20.4674L43.2809 14.7215Z" fill="#4C6752"/>
<path d="M54.3436 13.7461C54.6166 13.533 54.819 13.2358 54.9226 12.896C55.0262 12.5563 55.0258 12.1911 54.9213 11.8517C54.8168 11.5123 54.6136 11.2156 54.3401 11.0033C54.0666 10.791 53.7365 10.6737 53.3962 10.6679L46.7864 10.4063C46.7539 10.4039 46.7227 10.3918 46.6967 10.3713C46.6706 10.3508 46.6508 10.3229 46.6395 10.2908L44.3555 3.82668C44.2407 3.49781 44.0323 3.21383 43.7584 3.01319C43.4845 2.81256 43.1584 2.70496 42.8242 2.70496C42.49 2.70496 42.1639 2.81256 41.89 3.01319C41.6161 3.21383 41.4077 3.49781 41.2929 3.82668L39.0162 10.3139C39.005 10.3459 38.9851 10.3739 38.959 10.3944C38.933 10.4148 38.9018 10.427 38.8693 10.4293L32.2595 10.691C31.9192 10.6968 31.5891 10.8141 31.3156 11.0264C31.0421 11.2387 30.8389 11.5353 30.7344 11.8748C30.63 12.2142 30.6295 12.5794 30.7331 12.9191C30.8367 13.2588 31.0392 13.5561 31.3121 13.7691L36.4971 18.0401C36.5231 18.0615 36.5425 18.0904 36.5529 18.1232C36.5634 18.156 36.5644 18.1914 36.5559 18.2248L34.7712 24.8505C34.6788 25.1879 34.6877 25.547 34.7969 25.8789C34.9061 26.2107 35.1102 26.4993 35.3814 26.7053C35.6527 26.9114 35.9779 27.0248 36.3129 27.0303C36.6479 27.0358 36.9763 26.933 37.2536 26.7359L42.7324 22.8882C42.7594 22.8687 42.7914 22.8582 42.8242 22.8582C42.857 22.8582 42.889 22.8687 42.916 22.8882L48.3948 26.7359C48.6683 26.9397 48.9956 27.0492 49.3312 27.0492C49.6668 27.0492 49.9941 26.9397 50.2676 26.7359C50.5389 26.5318 50.7432 26.2447 50.8523 25.9139C50.9615 25.5832 50.9702 25.2251 50.8771 24.889L49.0778 18.2402C49.0683 18.2068 49.0688 18.1712 49.0793 18.1381C49.0898 18.1051 49.1098 18.0762 49.1366 18.0555L54.3436 13.7461Z" fill="#9DDCDF"/>
<path d="M23.6879 13.7461C23.9608 13.533 24.1633 13.2358 24.2669 12.896C24.3705 12.5563 24.37 12.1911 24.2656 11.8517C24.1611 11.5123 23.9579 11.2156 23.6844 11.0033C23.4108 10.791 23.0808 10.6737 22.7405 10.6679L16.1307 10.4063C16.0982 10.4039 16.067 10.3918 16.041 10.3713C16.0149 10.3508 15.995 10.3229 15.9838 10.2908L13.6997 3.82668C13.585 3.49781 13.3765 3.21383 13.1026 3.01319C12.8288 2.81256 12.5026 2.70496 12.1685 2.70496C11.8343 2.70496 11.5082 2.81256 11.2343 3.01319C10.9604 3.21383 10.7519 3.49781 10.6372 3.82668L8.36048 10.3139C8.34923 10.3459 8.32937 10.3739 8.30331 10.3944C8.27725 10.4148 8.24609 10.427 8.21359 10.4293L1.60379 10.691C1.26347 10.6968 0.933411 10.8141 0.659909 11.0264C0.386406 11.2387 0.18317 11.5353 0.0786986 11.8748C-0.0257731 12.2142 -0.0262418 12.5794 0.0773581 12.9191C0.180958 13.2588 0.383431 13.5561 0.656388 13.7691L5.84141 18.0401C5.86736 18.0615 5.88675 18.0904 5.8972 18.1232C5.90764 18.156 5.90867 18.1914 5.90016 18.2248L4.11552 24.8505C4.02304 25.1879 4.032 25.547 4.14118 25.8789C4.25036 26.2107 4.45446 26.4993 4.72571 26.7053C4.99697 26.9114 5.3222 27.0248 5.65718 27.0303C5.99216 27.0358 6.32062 26.933 6.59786 26.7359L12.0767 22.8882C12.1036 22.8687 12.1357 22.8582 12.1685 22.8582C12.2013 22.8582 12.2333 22.8687 12.2603 22.8882L17.7391 26.7359C18.0126 26.9397 18.3398 27.0492 18.6754 27.0492C19.011 27.0492 19.3383 26.9397 19.6118 26.7359C19.8832 26.5318 20.0874 26.2447 20.1966 25.9139C20.3058 25.5832 20.3144 25.2251 20.2214 24.889L18.4221 18.2402C18.4125 18.2068 18.4131 18.1712 18.4236 18.1381C18.4341 18.1051 18.4541 18.0762 18.4808 18.0555L23.6879 13.7461Z" fill="#9DDCDF"/>
<path fill-rule="evenodd" clip-rule="evenodd" d="M44.0743 13.5881C43.9324 14.0411 43.6549 14.4374 43.2809 14.7215L36.1453 20.4674C36.1086 20.495 36.0812 20.5335 36.0668 20.5775C36.0524 20.6216 36.0517 20.6691 36.0648 20.7136L37.6603 26.4502L37.2536 26.7358C36.9764 26.9328 36.6479 27.0356 36.313 27.0301C35.978 27.0247 35.6527 26.9112 35.3815 26.7052C35.1102 26.4992 34.9061 26.2106 34.7969 25.8787C34.6878 25.5468 34.6788 25.1878 34.7713 24.8504L36.5559 18.2246C36.5644 18.1912 36.5634 18.1559 36.553 18.1231C36.5425 18.0902 36.5231 18.0613 36.4972 18.04L31.3122 13.769C31.0392 13.5559 30.8367 13.2587 30.7331 12.919C30.6295 12.5792 30.63 12.2141 30.7345 11.8746C30.8389 11.5352 31.0422 11.2385 31.3157 11.0262C31.5892 10.8139 31.9192 10.6967 32.2596 10.6908L37.9964 10.4637L41.9826 10.6173C42.4489 10.625 42.9012 10.7814 43.276 11.0645C43.6508 11.3475 43.9293 11.7431 44.0725 12.1957C44.2157 12.6482 44.2163 13.1352 44.0743 13.5881ZM17.6946 10.4679L22.7405 10.6677C23.0808 10.6735 23.4109 10.7908 23.6844 11.0031C23.9579 11.2154 24.1611 11.512 24.2656 11.8514C24.3701 12.1909 24.3705 12.5561 24.2669 12.8958C24.1633 13.2355 23.9609 13.5328 23.6879 13.7458L18.4808 18.0552C18.4541 18.076 18.4341 18.1048 18.4236 18.1379C18.4131 18.1709 18.4126 18.2066 18.4221 18.2399L20.2214 24.8888C20.3145 25.2249 20.3058 25.5829 20.1966 25.9137C20.0875 26.2444 19.8832 26.5316 19.6119 26.7357C19.3384 26.9395 19.0111 27.049 18.6755 27.049C18.3399 27.049 18.0126 26.9395 17.7391 26.7357L17.3148 26.4377L18.9051 20.6931C18.9168 20.6486 18.9154 20.6015 18.901 20.5577C18.8867 20.5139 18.8602 20.4754 18.8246 20.4469L11.7192 14.7523C11.3451 14.4682 11.0677 14.0719 10.9257 13.6189C10.7837 13.1659 10.7844 12.679 10.9275 12.2264C11.0707 11.7739 11.3492 11.3783 11.724 11.0953C12.0988 10.8122 12.5511 10.6558 13.0175 10.6481L17.6946 10.4679Z" fill="black"/>
</svg>
