<svg width="20" height="12" viewBox="0 0 20 12" fill="none" xmlns="http://www.w3.org/2000/svg">
<path fill-rule="evenodd" clip-rule="evenodd" d="M12.3465 0.361207C12.5714 0.136336 12.8764 0.0100098 13.1945 0.0100098C13.5126 0.0100098 13.8176 0.136336 14.0426 0.361207L18.8406 5.1592C19.0654 5.38414 19.1918 5.68919 19.1918 6.00725C19.1918 6.32532 19.0654 6.63036 18.8406 6.8553L14.0426 11.6533C13.8163 11.8718 13.5133 11.9927 13.1988 11.99C12.8843 11.9872 12.5835 11.8611 12.3611 11.6387C12.1387 11.4163 12.0125 11.1154 12.0098 10.8009C12.0071 10.4864 12.128 10.1834 12.3465 9.9572L15.0969 7.20675H1.1995C0.881373 7.20675 0.576276 7.08037 0.351326 6.85542C0.126376 6.63048 0 6.32538 0 6.00725C0 5.68912 0.126376 5.38403 0.351326 5.15908C0.576276 4.93413 0.881373 4.80775 1.1995 4.80775H15.0969L12.3465 2.0573C12.1216 1.83236 11.9953 1.52732 11.9953 1.20925C11.9953 0.891189 12.1216 0.586147 12.3465 0.361207Z" fill="white"/>
</svg>
