<svg width="56" height="56" viewBox="0 0 56 56" fill="none" xmlns="http://www.w3.org/2000/svg">
<g style="mix-blend-mode:multiply" opacity="0.08">
<rect width="56" height="56" rx="8" fill="#A85C00"/>
</g>
<path opacity="0.35" d="M16.918 40.672V15.4038C16.918 14.6289 17.5469 14 18.3218 14H35.1673C37.4933 14 39.3786 15.8853 39.3786 18.2114V37.8645C39.3786 40.1905 37.4933 42.0758 35.1673 42.0758H18.3218C17.5469 42.0758 16.918 41.4469 16.918 40.672Z" fill="#5EE0E0"/>
<path d="M31.6578 21.0186C31.116 21.0186 25.1808 21.0186 24.6389 21.0186C23.4766 21.0186 22.5332 21.9619 22.5332 23.1242C22.5332 24.2866 23.4766 25.2299 24.6389 25.2299C25.1808 25.2299 31.116 25.2299 31.6578 25.2299C32.8202 25.2299 33.7635 24.2866 33.7635 23.1242C33.7635 21.9619 32.8202 21.0186 31.6578 21.0186Z" fill="#4C7C8C"/>
</svg>