<svg width="117" height="44" viewBox="0 0 117 44" fill="none" xmlns="http://www.w3.org/2000/svg">
<path d="M106.887 40.1032V37.9308H115.79V40.1032H106.887ZM99.8851 21.6577L105.277 6.60654L116.915 10.7573L115.712 14.0933L107.915 11.3003L107.003 13.8606L114.063 16.382L112.958 19.466L105.898 16.9445L104.909 19.6987L112.725 22.4917L111.523 25.8278L99.8851 21.6577ZM31.3403 34.2068H33.7647V43.8078H31.67V37.5235H31.6506L28.3145 43.8078H27.4611L24.1444 37.5235H24.125V43.8078H22.0303V34.2068H24.4547L27.8684 40.8984H27.8878L31.3403 34.2068ZM42.4153 34.2068H44.3743L48.7189 43.8078H46.4302L45.7902 42.3337H40.98L40.3399 43.8078H38.09L42.4153 34.2068ZM43.3851 36.6701L41.7558 40.4911H45.0337L43.4045 36.6701H43.3851ZM59.0957 40.2583L61.4426 43.8078H59.0569L56.8264 40.3359H55.1196V43.8078H53.0248V34.2068H58.0871C60.1819 34.2068 61.5202 35.39 61.5202 37.2714C61.5202 38.823 60.6086 39.9092 59.0957 40.2389V40.2583ZM57.8738 38.4933C58.8436 38.4933 59.406 38.0472 59.406 37.252C59.406 36.4373 58.9211 36.0688 57.835 36.0688H55.1002V38.5127H57.8738V38.4933ZM72.3237 34.2068H75.1942L71.2181 38.3187L75.233 43.8078H72.6728L69.8216 39.7152H69.8022L68.3475 41.2863V43.8078H66.2528V34.2068H68.3475V38.4351H68.3669L72.3237 34.2068ZM79.5389 34.2068H86.8123V36.0494H81.6531V38.0666H86.3274V39.8122H81.6531V41.9846H86.8123V43.8272H79.5583L79.5389 34.2068ZM91.1182 34.2068H100.06V36.0494H96.646V43.8078H94.5513V36.0688H91.1182V34.2068ZM3.44905 40.1032V37.9308H12.3517V40.1032H3.44905ZM0.539673 13.0266L14.7568 7.42116L16.0563 10.7185L10.8195 12.7744L15.3969 24.3537L11.6147 25.8472L7.03728 14.2679L1.83919 16.3045L0.539673 13.0266ZM22.8255 4.99668L26.8016 4.12387L28.0818 9.98142L34.6957 8.54612L33.4156 2.68858L37.3918 1.81577L40.8054 17.4294L36.8293 18.3022L35.491 12.1731L28.877 13.6084L30.2153 19.7569L26.2392 20.6297C26.2198 20.6297 22.8255 4.99668 22.8255 4.99668ZM68.8518 16.2463L69.9962 0.302892L74.0693 0.59383L72.9249 16.5372L68.8518 16.2463ZM80.819 1.03993L85.2025 1.89335L87.7821 13.7636H87.8209L94.7259 3.75535L99.1093 4.60877L88.8683 18.8841L84.8728 18.0889L80.819 1.03993ZM62.2184 15.839L57.6992 16.0717L54.0528 10.9512L51.3956 11.087L51.6671 16.382L47.594 16.5954L46.7599 0.632621L55.3523 0.186519C58.9017 -0.0074397 61.4232 1.83516 61.5978 5.19064C61.7335 7.75089 60.3952 9.5935 58.1647 10.4081V10.4275L62.2184 15.839ZM55.3911 7.40177C56.7682 7.32419 57.6022 6.62593 57.5246 5.3846C57.4664 4.10448 56.6518 3.58079 55.1777 3.65837L50.9882 3.87173L51.1822 7.61512L55.3911 7.40177Z" fill="white"/>
</svg>
