<svg width="14" height="8" viewBox="0 0 14 8" fill="none" xmlns="http://www.w3.org/2000/svg">
<path fill-rule="evenodd" clip-rule="evenodd" d="M0.390085 7.59839C0.639931 7.84816 0.978751 7.98847 1.33203 7.98847C1.68532 7.98847 2.02414 7.84816 2.27398 7.59839L6.66131 3.21106L11.0486 7.59839C11.1715 7.72564 11.3185 7.82713 11.4811 7.89696C11.6436 7.96679 11.8185 8.00354 11.9954 8.00508C12.1723 8.00661 12.3477 7.9729 12.5115 7.90591C12.6752 7.83892 12.8239 7.74 12.949 7.6149C13.0741 7.48981 13.1731 7.34105 13.2401 7.17731C13.307 7.01357 13.3408 6.83814 13.3392 6.66123C13.3377 6.48433 13.3009 6.3095 13.2311 6.14695C13.1613 5.9844 13.0598 5.83739 12.9325 5.71449L7.60326 0.385211C7.35341 0.13544 7.01459 -0.00487328 6.66131 -0.00487328C6.30802 -0.00487328 5.9692 0.13544 5.71936 0.385211L0.390085 5.71449C0.140314 5.96433 0 6.30315 0 6.65644C0 7.00972 0.140314 7.34854 0.390085 7.59839Z" fill="black"/>
</svg>
