<svg width="18" height="14" viewBox="0 0 18 14" fill="none" xmlns="http://www.w3.org/2000/svg">
<path d="M8.75447 3.81801L8.79132 4.40625L8.17715 4.33422C5.94156 4.05811 3.9885 3.12173 2.33023 1.54909L1.51953 0.768773L1.31071 1.34501C0.868503 2.62953 1.15102 3.98608 2.07228 4.89845C2.56362 5.40265 2.45307 5.47468 1.60551 5.17456C1.31071 5.07852 1.05275 5.00649 1.02819 5.0425C0.942204 5.12654 1.23701 6.21898 1.47039 6.65116C1.78976 7.2514 2.44078 7.83964 3.15322 8.18778L3.75511 8.46389L3.04267 8.47589C2.3548 8.47589 2.33023 8.4879 2.40393 8.74C2.6496 9.52032 3.61999 10.3487 4.70094 10.7088L5.46251 10.9609L4.7992 11.3451C3.81653 11.8973 2.66189 12.2094 1.50724 12.2334C0.954487 12.2454 0.5 12.2934 0.5 12.3295C0.5 12.4495 1.99858 13.1218 2.8707 13.3859C5.48708 14.1662 8.59479 13.8301 10.9286 12.4975C12.5869 11.5491 14.2452 9.66438 15.019 7.83964C15.4367 6.86724 15.8543 5.09052 15.8543 4.23818C15.8543 3.68595 15.8912 3.61393 16.579 2.95366C16.9844 2.5695 17.3652 2.14933 17.4389 2.02928C17.5617 1.80119 17.5494 1.80119 16.923 2.00527C15.8789 2.36542 15.7315 2.3174 16.2474 1.77718C16.6282 1.39303 17.0826 0.696744 17.0826 0.492661C17.0826 0.456646 16.8984 0.516671 16.6896 0.624714C16.4685 0.744763 15.9771 0.924836 15.6086 1.03288L14.9453 1.23696L14.3434 0.840802C14.0118 0.624714 13.545 0.384617 13.2993 0.312588C12.6729 0.14452 11.7148 0.16853 11.1497 0.360607C9.61431 0.900826 8.64392 2.29339 8.75447 3.81801Z" fill="white"/>
</svg>
