<svg width="108" height="32" viewBox="0 0 108 32" fill="none" xmlns="http://www.w3.org/2000/svg">
<g clip-path="url(#clip0_159_60)">
<path d="M29.7134 20.1811C27.9762 20.1811 26.3484 19.4493 24.8694 18.258L25.2295 16.5763L25.2452 16.514C25.5659 14.7234 26.5832 11.7178 29.7134 11.7178C32.0608 11.7178 33.9703 13.6177 33.9703 15.9533C33.9624 18.2813 32.0531 20.1811 29.7134 20.1811ZM29.7134 7.42788C25.7145 7.42788 22.6159 10.0128 21.3562 14.2639C19.4311 11.3908 17.9755 7.94179 17.1226 5.0376H12.8188V16.1791C12.8188 18.3747 11.0189 20.1653 8.81218 20.1653C6.60544 20.1653 4.80581 18.3747 4.80581 16.1791V5.0376H0.501514V16.1791C0.485856 20.7418 4.21853 24.4866 8.80404 24.4866C13.3898 24.4866 17.1224 20.7418 17.1224 16.1791V14.3106C17.9596 16.0468 18.9847 17.7985 20.229 19.3558L17.5918 31.6884H21.9975L23.9068 22.7426C25.5813 23.8092 27.5064 24.4789 29.7132 24.4789C34.4317 24.4789 38.274 20.6327 38.274 15.9377C38.274 11.2506 34.4317 7.42788 29.7132 7.42788H29.7134Z" fill="white"/>
<path d="M51.4126 7.91048L54.1906 19.052L57.2504 7.91048H60.8968L56.194 24.0116H52.5473L49.66 12.7999L46.7801 24.0037H43.1337L38.4304 7.90279H42.0771L45.1367 19.0443L47.9146 7.90279H51.4124V7.91069L51.4126 7.91048ZM69.6219 7.42773C64.8878 7.42773 61.0534 11.2505 61.0534 15.9532C61.0534 20.6637 64.8955 24.4788 69.6219 24.4788C74.3563 24.4788 78.1984 20.6637 78.1984 15.9532C78.1984 11.2428 74.3563 7.42773 69.6219 7.42773ZM69.6219 20.9751C66.8363 20.9751 64.5825 18.7327 64.5825 15.961C64.5825 13.1892 66.844 10.947 69.6219 10.947C72.4078 10.947 74.6613 13.1892 74.6613 15.961C74.6613 18.725 72.4078 20.9751 69.6219 20.9751ZM88.6137 11.5153C86.1646 11.5153 84.1848 13.4929 84.1848 15.922V24.0037H80.5145V7.91048H84.1848V10.3863C84.1848 10.3863 85.7497 7.90259 88.9659 7.90259H90.0927V11.5153H88.6137ZM100.931 15.3304C103.536 13.8666 105.305 11.087 105.305 7.90259H101.635C101.635 10.5887 99.4439 12.7687 96.7442 12.7687H96.2511V0.140137H92.5813V24.0035H96.2511V16.4203H96.6895C97.0494 16.4203 97.519 16.654 97.7303 16.9419L102.942 24.0037H107.34L100.931 15.3304Z" fill="white"/>
</g>
<defs>
<clipPath id="clip0_159_60">
<rect width="106.902" height="31.7818" fill="white" transform="translate(0.457764 0.109131)"/>
</clipPath>
</defs>
</svg>
