<svg width="24" height="24" viewBox="0 0 24 24" fill="none" xmlns="http://www.w3.org/2000/svg">
<rect x="0.5" y="0.5" width="23" height="23" rx="11.5" stroke="white"/>
<path fill-rule="evenodd" clip-rule="evenodd" d="M8.23395 10.2439C8.38379 10.0941 8.58699 10.01 8.79886 10.01C9.01074 10.01 9.21394 10.0941 9.36378 10.2439L11.995 12.8752L14.6262 10.2439C14.6999 10.1676 14.7881 10.1067 14.8856 10.0649C14.9831 10.023 15.0879 10.001 15.194 10C15.3001 9.99911 15.4053 10.0193 15.5035 10.0595C15.6017 10.0997 15.6909 10.159 15.766 10.234C15.841 10.3091 15.9003 10.3983 15.9405 10.4965C15.9807 10.5947 16.0009 10.6999 16 10.806C15.999 10.9121 15.977 11.0169 15.9351 11.1144C15.8933 11.2119 15.8324 11.3001 15.7561 11.3738L12.5599 14.5699C12.4101 14.7197 12.2069 14.8039 11.995 14.8039C11.7831 14.8039 11.5799 14.7197 11.4301 14.5699L8.23395 11.3738C8.08415 11.2239 8 11.0207 8 10.8089C8 10.597 8.08415 10.3938 8.23395 10.2439Z" fill="white"/>
</svg>
