<svg width="24" height="24" viewBox="0 0 24 24" fill="none" xmlns="http://www.w3.org/2000/svg">
<rect x="23.5" y="23.5" width="23" height="23" rx="11.5" transform="rotate(-180 23.5 23.5)" stroke="white"/>
<path fill-rule="evenodd" clip-rule="evenodd" d="M15.7661 13.7561C15.6162 13.9059 15.413 13.99 15.2011 13.99C14.9893 13.99 14.7861 13.9059 14.6362 13.7561L12.005 11.1248L9.37377 13.7561C9.30006 13.8324 9.21189 13.8933 9.11441 13.9351C9.01692 13.977 8.91207 13.999 8.80598 14C8.69988 14.0009 8.59467 13.9807 8.49647 13.9405C8.39827 13.9003 8.30906 13.841 8.23403 13.766C8.15901 13.6909 8.09968 13.6017 8.0595 13.5035C8.01933 13.4053 7.99911 13.3001 8.00003 13.194C8.00095 13.0879 8.02299 12.9831 8.06487 12.8856C8.10675 12.7881 8.16762 12.6999 8.24394 12.6262L11.4401 9.43009C11.5899 9.28029 11.7931 9.19614 12.005 9.19614C12.2169 9.19614 12.4201 9.28029 12.5699 9.43009L15.7661 12.6262C15.9158 12.7761 16 12.9793 16 13.1911C16 13.403 15.9158 13.6062 15.7661 13.7561Z" fill="white"/>
</svg>
