<svg width="55" height="33" viewBox="0 0 55 33" fill="none" xmlns="http://www.w3.org/2000/svg">
<path d="M43.281 14.7215C43.655 14.4374 43.9325 14.0411 44.0745 13.5881C44.2164 13.1351 44.2158 12.6482 44.0726 12.1956C43.9295 11.7431 43.651 11.3475 43.2762 11.0645C42.9014 10.7814 42.4491 10.625 41.9827 10.6173L32.9248 10.2684C32.8803 10.2653 32.8376 10.2491 32.8019 10.2218C32.7662 10.1945 32.739 10.1572 32.7235 10.1145L29.5935 1.49563C29.4363 1.05714 29.1506 0.678498 28.7753 0.410984C28.4 0.14347 27.9531 0 27.4951 0C27.0372 0 26.5903 0.14347 26.2149 0.410984C25.8396 0.678498 25.554 1.05714 25.3967 1.49563L22.2768 10.1453C22.2614 10.188 22.2341 10.2252 22.1984 10.2525C22.1627 10.2798 22.12 10.296 22.0755 10.2992L13.0176 10.648C12.5512 10.6558 12.0989 10.8122 11.7241 11.0952C11.3493 11.3783 11.0708 11.7739 10.9277 12.2264C10.7845 12.679 10.7839 13.1659 10.9258 13.6189C11.0678 14.0719 11.3453 14.4682 11.7193 14.7523L18.8247 20.4469C18.8603 20.4754 18.8869 20.5139 18.9012 20.5577C18.9155 20.6015 18.9169 20.6485 18.9052 20.6931L16.4596 29.5274C16.3329 29.9773 16.3452 30.4561 16.4948 30.8986C16.6444 31.3411 16.9241 31.7258 17.2958 32.0005C17.6675 32.2752 18.1132 32.4265 18.5723 32.4338C19.0313 32.4411 19.4814 32.304 19.8613 32.0413L27.3693 26.911C27.4063 26.885 27.4502 26.871 27.4951 26.871C27.5401 26.871 27.5839 26.885 27.6209 26.911L35.1289 32.0413C35.5037 32.313 35.9522 32.459 36.4121 32.459C36.872 32.459 37.3205 32.313 37.6953 32.0413C38.0671 31.7692 38.3471 31.3863 38.4967 30.9453C38.6463 30.5043 38.6581 30.0269 38.5306 29.5787L36.0649 20.7136C36.0518 20.6691 36.0525 20.6216 36.0669 20.5775C36.0814 20.5335 36.1087 20.495 36.1454 20.4674L43.281 14.7215Z" fill="white"/>
<path d="M54.3436 13.7459C54.6166 13.5329 54.8191 13.2356 54.9227 12.8959C55.0263 12.5562 55.0258 12.191 54.9213 11.8516C54.8169 11.5121 54.6136 11.2155 54.3401 11.0032C54.0666 10.7909 53.7366 10.6736 53.3962 10.6678L46.7864 10.4061C46.7539 10.4038 46.7228 10.3916 46.6967 10.3712C46.6707 10.3507 46.6508 10.3227 46.6395 10.2907L44.3555 3.82656C44.2407 3.49769 44.0323 3.21371 43.7584 3.01307C43.4845 2.81244 43.1584 2.70483 42.8242 2.70483C42.49 2.70483 42.1639 2.81244 41.89 3.01307C41.6161 3.21371 41.4077 3.49769 41.2929 3.82656L39.0162 10.3138C39.005 10.3458 38.9851 10.3738 38.9591 10.3942C38.933 10.4147 38.9019 10.4269 38.8694 10.4292L32.2596 10.6909C31.9192 10.6967 31.5892 10.814 31.3157 11.0263C31.0422 11.2386 30.8389 11.5352 30.7345 11.8747C30.63 12.2141 30.6295 12.5793 30.7331 12.919C30.8367 13.2587 31.0392 13.556 31.3121 13.769L36.4972 18.04C36.5231 18.0614 36.5425 18.0903 36.553 18.1231C36.5634 18.1559 36.5644 18.1912 36.5559 18.2247L34.7713 24.8504C34.6788 25.1878 34.6878 25.5469 34.7969 25.8788C34.9061 26.2106 35.1102 26.4992 35.3815 26.7052C35.6527 26.9112 35.978 27.0247 36.3129 27.0302C36.6479 27.0357 36.9764 26.9329 37.2536 26.7358L42.7324 22.8881C42.7594 22.8686 42.7914 22.8581 42.8242 22.8581C42.857 22.8581 42.889 22.8686 42.916 22.8881L48.3948 26.7358C48.6683 26.9396 48.9956 27.0491 49.3312 27.0491C49.6668 27.0491 49.9941 26.9396 50.2676 26.7358C50.5389 26.5317 50.7432 26.2445 50.8524 25.9138C50.9615 25.5831 50.9702 25.225 50.8772 24.8889L49.0778 18.2401C49.0683 18.2067 49.0688 18.171 49.0793 18.138C49.0898 18.1049 49.1098 18.0761 49.1366 18.0554L54.3436 13.7459Z" fill="#9DDCDF"/>
<path d="M23.6879 13.7459C23.9608 13.5329 24.1633 13.2356 24.2669 12.8959C24.3705 12.5562 24.37 12.191 24.2656 11.8516C24.1611 11.5121 23.9579 11.2155 23.6844 11.0032C23.4108 10.7909 23.0808 10.6736 22.7405 10.6678L16.1307 10.4061C16.0982 10.4038 16.067 10.3916 16.041 10.3712C16.0149 10.3507 15.995 10.3227 15.9838 10.2907L13.6997 3.82656C13.585 3.49769 13.3765 3.21371 13.1026 3.01307C12.8288 2.81244 12.5026 2.70483 12.1685 2.70483C11.8343 2.70483 11.5082 2.81244 11.2343 3.01307C10.9604 3.21371 10.7519 3.49769 10.6372 3.82656L8.36048 10.3138C8.34923 10.3458 8.32937 10.3738 8.30331 10.3942C8.27725 10.4147 8.24609 10.4269 8.21359 10.4292L1.60379 10.6909C1.26347 10.6967 0.933411 10.814 0.659909 11.0263C0.386406 11.2386 0.18317 11.5352 0.0786986 11.8747C-0.0257731 12.2141 -0.0262418 12.5793 0.0773581 12.919C0.180958 13.2587 0.383431 13.556 0.656388 13.769L5.84141 18.04C5.86736 18.0614 5.88675 18.0903 5.8972 18.1231C5.90764 18.1559 5.90867 18.1912 5.90016 18.2247L4.11552 24.8504C4.02304 25.1878 4.032 25.5469 4.14118 25.8788C4.25036 26.2106 4.45446 26.4992 4.72571 26.7052C4.99697 26.9112 5.3222 27.0247 5.65718 27.0302C5.99216 27.0357 6.32062 26.9329 6.59786 26.7358L12.0767 22.8881C12.1036 22.8686 12.1357 22.8581 12.1685 22.8581C12.2013 22.8581 12.2333 22.8686 12.2603 22.8881L17.7391 26.7358C18.0126 26.9396 18.3398 27.0491 18.6754 27.0491C19.011 27.0491 19.3383 26.9396 19.6118 26.7358C19.8832 26.5317 20.0874 26.2445 20.1966 25.9138C20.3058 25.5831 20.3144 25.225 20.2214 24.8889L18.4221 18.2401C18.4125 18.2067 18.4131 18.171 18.4236 18.138C18.4341 18.1049 18.4541 18.0761 18.4808 18.0554L23.6879 13.7459Z" fill="#9DDCDF"/>
<path fill-rule="evenodd" clip-rule="evenodd" d="M44.0745 13.588C43.9325 14.041 43.655 14.4373 43.281 14.7214L36.1454 20.4673C36.1088 20.4949 36.0814 20.5333 36.0669 20.5774C36.0525 20.6215 36.0518 20.669 36.0649 20.7135L37.6604 26.45L37.2538 26.7356C36.9765 26.9327 36.6481 27.0355 36.3131 27.03C35.9781 27.0246 35.6529 26.9111 35.3816 26.7051C35.1103 26.4991 34.9062 26.2105 34.7971 25.8786C34.6879 25.5467 34.6789 25.1877 34.7714 24.8503L36.5561 18.2245C36.5646 18.1911 36.5635 18.1558 36.5531 18.1229C36.5426 18.0901 36.5233 18.0612 36.4973 18.0398L31.3123 13.7689C31.0393 13.5558 30.8368 13.2586 30.7332 12.9188C30.6296 12.5791 30.6301 12.2139 30.7346 11.8745C30.8391 11.5351 31.0423 11.2384 31.3158 11.0261C31.5893 10.8138 31.9194 10.6965 32.2597 10.6907L37.9965 10.4636L41.9827 10.6171C42.4491 10.6249 42.9014 10.7813 43.2762 11.0644C43.651 11.3474 43.9295 11.743 44.0726 12.1955C44.2158 12.6481 44.2164 13.135 44.0745 13.588ZM17.6947 10.4678L22.7406 10.6675C23.0809 10.6734 23.411 10.7906 23.6845 11.0029C23.958 11.2152 24.1612 11.5119 24.2657 11.8513C24.3702 12.1908 24.3707 12.5559 24.2671 12.8957C24.1635 13.2354 23.961 13.5326 23.688 13.7457L18.481 18.0551C18.4542 18.0758 18.4342 18.1047 18.4237 18.1377C18.4132 18.1708 18.4127 18.2064 18.4222 18.2398L20.2216 24.8887C20.3146 25.2248 20.3059 25.5828 20.1968 25.9136C20.0876 26.2443 19.8833 26.5315 19.612 26.7355C19.3385 26.9394 19.0112 27.0489 18.6756 27.0489C18.34 27.0489 18.0127 26.9394 17.7392 26.7355L17.3149 26.4376L18.9052 20.693C18.9169 20.6484 18.9155 20.6013 18.9012 20.5576C18.8869 20.5138 18.8603 20.4753 18.8247 20.4468L11.7193 14.7521C11.3453 14.4681 11.0678 14.0717 10.9258 13.6188C10.7839 13.1658 10.7845 12.6789 10.9277 12.2263C11.0708 11.7737 11.3493 11.3782 11.7241 11.0951C12.0989 10.8121 12.5512 10.6557 13.0176 10.6479L17.6947 10.4678Z" fill="white"/>
</svg>
