<svg width="207" height="50" viewBox="0 0 207 50" fill="none" xmlns="http://www.w3.org/2000/svg">
<path d="M0 0.399414H49.6006V50.0001H0V0.399414Z" fill="#1E1E1E"/>
<path d="M1.98403 1.7221H48.278V44.7093H1.98403V1.7221Z" fill="#1E1E1E"/>
<path d="M2.64537 2.38344V3.5625L15.6527 14.2716L10.902 2.38344H2.64537ZM14.0327 2.38344L20.3485 12.4337L20.0799 2.38352L14.0327 2.38344ZM23.3173 2.38344L25.4225 11.9616L28.7149 2.38344H23.3173ZM31.9523 2.38344L30.4421 12.9033L38.8084 2.38344H31.9523ZM41.7743 2.38344L34.9212 15.1702L46.9553 7.14733V2.38344H41.7743ZM2.64537 6.72321V13.5167L11.8203 17.291L2.64537 6.72321ZM46.9553 10.4519L38.3203 18.4722L46.9552 15.8292L46.9553 10.4519ZM18.1046 15.2562C17.0955 15.2631 15.7793 16.0934 14.7662 17.4676C14.1673 18.2798 13.7766 19.1452 13.611 19.924C9.07898 21.756 3.08434 25.0866 3.08434 25.0866L16.8021 35.2655L18.1883 40.7413H31.5219L32.5674 35.518L32.5761 35.5255L46.6461 25.0868C46.6461 25.0868 40.5437 21.6946 35.9984 19.8735C35.8267 19.1081 35.4405 18.2623 34.8548 17.4678C33.8416 16.0936 32.5226 15.2633 31.5134 15.2563C31.177 15.2539 30.8752 15.343 30.6299 15.534C30.4063 15.708 30.2494 15.9517 30.1562 16.2459C30.272 16.3732 30.3857 16.5025 30.4941 16.6372C31.5707 17.9758 32.3033 19.6768 32.5706 21.5651C33.366 22.1936 34.1937 22.5154 34.8548 22.436L39.9001 25.3392L30.2342 30.0095C29.8581 30.4346 29.442 30.8191 28.9923 31.1531C28.477 30.8021 27.9727 30.5108 27.4732 30.2796C28.0579 29.9169 28.6014 29.433 29.0819 28.8356C30.2186 27.4222 30.956 25.4092 30.956 23.1705C30.956 20.9317 30.2186 18.9187 29.0819 17.5054C27.9452 16.092 26.4665 15.2989 24.8826 15.2989C23.2988 15.2989 21.8203 16.092 20.6836 17.5053C19.5469 18.9185 18.8095 20.9316 18.8095 23.1703C18.8095 25.409 19.5469 27.422 20.6836 28.8353C21.1032 29.3569 21.569 29.7939 22.0698 30.1379C21.5606 30.3494 21.0468 30.6245 20.5276 30.9635C20.1761 30.679 19.8516 30.3699 19.5573 30.0394L9.83067 25.3387L14.8615 22.4432C15.5537 22.4846 16.4104 22.1127 17.2181 21.4257C17.5009 19.5933 18.2213 17.9423 19.2715 16.6368C19.3444 16.5462 19.4195 16.4569 19.4967 16.3691C19.4103 16.0196 19.2423 15.7312 18.9884 15.5335C18.743 15.3425 18.441 15.2539 18.1046 15.2562ZM23.7505 19.9795C23.6868 20.3081 23.655 20.6409 23.6553 20.9742C23.6553 21.1554 23.6615 21.3304 23.6784 21.5017C22.6369 21.5778 21.6353 21.7751 20.7153 22.095L20.0771 20.6941C21.2358 20.291 22.4755 20.0548 23.7505 19.9795ZM26.3584 20.0425C27.4274 20.1537 28.4978 20.3685 29.5439 20.6813L28.9864 22.1077C28.1485 21.857 27.2849 21.6778 26.4075 21.5725C26.4294 21.3737 26.44 21.174 26.4394 20.9742C26.4394 20.6475 26.4113 20.3334 26.3584 20.0425ZM24.8336 23.3801C26.7065 23.3801 28.227 24.7053 28.227 26.3413C28.227 27.9776 26.7065 29.3051 24.8336 29.3051C22.9607 29.3051 21.4431 27.9775 21.4431 26.3414C21.4431 24.7054 22.9607 23.3801 24.8336 23.3801Z" fill="url(#paint0_linear_243_5424)"/>
<path d="M18.2173 48.6774V43.4276H18.0414L18.171 42.1962H20.819L20.745 43.4276H19.4765V44.8165H20.6153L20.5413 46.0479H19.4765V48.6774H18.2173Z" fill="white"/>
<path d="M21.3187 48.6774V43.4276H21.1427L21.2724 42.1962H23.9204L23.8463 43.4276H22.5779V44.8165H23.7167L23.6426 46.0479H22.5779V47.4459H23.9204L23.8463 48.6774H21.3187Z" fill="white"/>
<path d="M24.2441 48.6774L25.0125 43.4276H24.8181L24.9477 42.1962H27.105L28.0587 48.6774H26.8088L26.6699 47.7515H25.6329L25.494 48.6774H24.2441ZM25.8088 46.5201H26.494L26.1514 44.2054L25.8088 46.5201Z" fill="white"/>
<path d="M28.56 48.6774V43.4276H28.3841L28.5137 42.1962H30.2081C30.6834 42.1962 31.0229 42.3012 31.2266 42.511C31.4364 42.7147 31.5414 43.0511 31.5414 43.5202V45.6312C31.5414 46.1065 31.4395 46.446 31.2358 46.6497L31.8099 48.6774H30.5507L30.0692 46.9552H29.8192V48.6774H28.56ZM30.2359 43.4276H29.8192V45.7238H30.2359C30.2667 45.7238 30.2822 45.7084 30.2822 45.6775V43.4739C30.2822 43.4431 30.2667 43.4276 30.2359 43.4276Z" fill="white"/>
<path d="M52.9072 0.399414H101.847V50.0001H52.9072V0.399414Z" fill="#1E1E1E"/>
<path d="M54.2299 1.7221H100.524V44.7093H54.2299V1.7221Z" fill="#1E1E1E"/>
<path d="M68.9868 13.9569C70.2584 13.9569 71.4779 13.4866 72.3771 12.6494C73.2762 11.8123 73.7814 10.6768 73.7814 9.49286C73.7814 8.30892 73.2762 7.17347 72.3771 6.3363C71.4779 5.49913 70.2584 5.02881 68.9868 5.02881C67.7152 5.02881 66.4956 5.49913 65.5965 6.3363C64.6973 7.17347 64.1922 8.30892 64.1922 9.49286C64.1922 10.6768 64.6973 11.8123 65.5965 12.6494C66.4956 13.4866 67.7152 13.9569 68.9868 13.9569ZM68.3874 38.5092V29.5811H69.5861V38.5092C69.5861 39.7438 70.6574 40.7413 71.9834 40.7413C73.3094 40.7413 74.3807 39.7438 74.3807 38.5092V25.989L75.3471 27.4188C76.0513 28.4651 77.5347 28.772 78.6509 28.1164C79.7672 27.4607 80.1043 26.0796 79.4001 25.0403L75.5269 19.3138C74.2084 17.3677 71.9085 16.182 69.4438 16.182H68.5223C66.0501 16.182 63.7502 17.3608 62.4391 19.3138L58.566 25.0473C57.8618 26.0936 58.1989 27.4677 59.3151 28.1233C60.4314 28.779 61.9147 28.4651 62.6189 27.4258L63.5928 25.989V38.5092C63.5928 39.7438 64.6641 40.7413 65.9901 40.7413C67.3161 40.7413 68.3874 39.7438 68.3874 38.5092ZM89.3639 5.02881H86.9666C86.3073 5.02881 85.7679 5.53101 85.7679 6.14482C85.7679 6.75863 86.3073 7.26084 86.9666 7.26084V14.2569C86.2474 14.6405 85.7679 15.3659 85.7679 16.189V18.421C84.4419 18.421 83.3706 19.4184 83.3706 20.653V30.6971C83.3706 31.9317 84.4419 32.9292 85.7679 32.9292H86.9666V39.6253C86.9666 40.2391 87.506 40.7413 88.1652 40.7413H92.6227C93.4018 40.7413 93.9712 40.0577 93.7839 39.3532L92.0608 32.9292H95.3571C96.0164 32.9292 96.5558 32.427 96.5558 31.8132V30.6971C96.5558 30.0833 96.0164 29.5811 95.3571 29.5811H91.7612V27.7188L95.7392 26.4842C96.2262 26.3307 96.5558 25.9053 96.5558 25.424V19.537C96.5558 18.9232 96.0164 18.421 95.3571 18.421H94.1585C93.4992 18.421 92.9598 18.9232 92.9598 19.537V23.443L91.7612 23.8127V16.189C91.7612 15.3659 91.2817 14.6405 90.5625 14.2569V6.14482C90.5625 5.53101 90.0231 5.02881 89.3639 5.02881Z" fill="url(#paint1_linear_243_5424)"/>
<path d="M65.2889 48.6774L64.3352 42.1962H65.5851L66.2425 46.8071L66.8999 42.1962H68.1498L67.1962 48.6774H65.2889Z" fill="white"/>
<path d="M68.6071 48.6774V43.4276H68.4311L68.5608 42.1962H69.8663V48.6774H68.6071Z" fill="white"/>
<path d="M73.3586 47.3904C73.3586 47.8595 73.2537 48.199 73.0438 48.4089C72.8401 48.6126 72.5006 48.7144 72.0254 48.7144H71.618C71.1427 48.7144 70.8001 48.6126 70.5902 48.4089C70.3866 48.199 70.2847 47.8595 70.2847 47.3904V43.4832C70.2847 43.0079 70.3866 42.6684 70.5902 42.4647C70.8001 42.261 71.1427 42.1592 71.618 42.1592H72.0254C72.5006 42.1592 72.8401 42.261 73.0438 42.4647C73.2537 42.6684 73.3586 43.0079 73.3586 43.4832V47.3904ZM71.5902 43.3906C71.5593 43.3906 71.5439 43.406 71.5439 43.4369V47.4367C71.5439 47.4676 71.5593 47.483 71.5902 47.483H72.0531C72.084 47.483 72.0994 47.4676 72.0994 47.4367V43.4369C72.0994 43.406 72.084 43.3906 72.0531 43.3906H71.5902Z" fill="white"/>
<path d="M73.9055 48.6866V43.4369H73.7296L73.8592 42.2055H75.1647V47.4459H76.9332L76.8591 48.6774H75.1647V48.6866H73.9055Z" fill="white"/>
<path d="M77.3414 48.6774V43.4276H77.1655L77.2951 42.1962H79.9431L79.8691 43.4276H78.6006V44.8165H79.7394L79.6654 46.0479H78.6006V47.4459H79.9431L79.8691 48.6774H77.3414Z" fill="white"/>
<path d="M80.488 48.6774V43.4276H80.312L80.4417 42.1962H81.7472L82.8027 45.7146V42.1962H84.0619V48.6774H82.8027L81.7472 45.159V48.6774H80.488Z" fill="white"/>
<path d="M87.509 45.9923V47.4274C87.509 47.8965 87.4041 48.236 87.1942 48.4459C86.9905 48.6496 86.651 48.7514 86.1757 48.7514H85.7684C85.2931 48.7514 84.9505 48.6496 84.7406 48.4459C84.5369 48.236 84.4351 47.8965 84.4351 47.4274V43.4462C84.4351 42.9709 84.5369 42.6314 84.7406 42.4277C84.9505 42.224 85.2931 42.1222 85.7684 42.1222H86.1757C86.651 42.1222 86.9905 42.224 87.1942 42.4277C87.4041 42.6314 87.509 42.9709 87.509 43.4462V44.9739L86.2498 44.835V43.3999C86.2498 43.369 86.2344 43.3536 86.2035 43.3536H85.7406C85.7097 43.3536 85.6943 43.369 85.6943 43.3999V47.4737C85.6943 47.5046 85.7097 47.52 85.7406 47.52H86.2035C86.2344 47.52 86.2498 47.5046 86.2498 47.4737V45.9923H87.509Z" fill="white"/>
<path d="M88.0559 48.6774V43.4276H87.88L88.0096 42.1962H90.6577L90.5836 43.4276H89.3151V44.8165H90.454L90.3799 46.0479H89.3151V47.4459H90.6577L90.5836 48.6774H88.0559Z" fill="white"/>
<path d="M158.061 0.399414H207V50.0001H158.061V0.399414Z" fill="#1E1E1E"/>
<path d="M159.383 1.7221H205.677V44.7093H159.383V1.7221Z" fill="#1E1E1E"/>
<path d="M161.021 48.6774V43.4276H160.845L160.975 42.1962H162.743C163.218 42.1962 163.558 42.3012 163.762 42.511C163.971 42.7147 164.076 43.0511 164.076 43.5202V44.7331C164.076 44.9183 164.061 45.0819 164.03 45.2238C164.184 45.4275 164.262 45.7362 164.262 46.1497V47.3534C164.262 47.8225 164.157 48.162 163.947 48.3718C163.743 48.5755 163.404 48.6774 162.928 48.6774H161.021ZM162.771 44.8257C162.802 44.8257 162.817 44.8103 162.817 44.7794V43.4739C162.817 43.4431 162.802 43.4276 162.771 43.4276H162.28V44.8257H162.771ZM163.002 46.1034C163.002 46.0726 162.987 46.0571 162.956 46.0571H162.28V47.4459H162.956C162.987 47.4459 163.002 47.4305 163.002 47.3997V46.1034Z" fill="white"/>
<path d="M164.589 48.6774L165.358 43.4276H165.163L165.293 42.1962H167.45L168.404 48.6774H167.154L167.015 47.7515H165.978L165.839 48.6774H164.589ZM166.154 46.5201H166.839L166.497 44.2054L166.154 46.5201Z" fill="white"/>
<path d="M171.98 47.3534C171.98 47.8225 171.875 48.162 171.666 48.3718C171.462 48.5755 171.122 48.6774 170.647 48.6774H168.906V43.4276H168.731L168.86 42.1962H170.647C171.122 42.1962 171.462 42.2981 171.666 42.5018C171.875 42.7055 171.98 43.0449 171.98 43.5202V47.3534ZM170.675 47.4459C170.706 47.4459 170.721 47.4305 170.721 47.3997V43.4739C170.721 43.4431 170.706 43.4276 170.675 43.4276H170.166V47.4459H170.675Z" fill="white"/>
<path d="M174.187 48.6866V43.4369H174.011L174.141 42.2055H175.446V47.4459H177.215L177.14 48.6774H175.446V48.6866H174.187Z" fill="white"/>
<path d="M177.582 48.6774L178.351 43.4276H178.157L178.286 42.1962H180.443L181.397 48.6774H180.147L180.008 47.7515H178.971L178.832 48.6774H177.582ZM179.147 46.5201H179.832L179.49 44.2054L179.147 46.5201Z" fill="white"/>
<path d="M181.854 48.6774V43.4276H181.678L181.808 42.1962H183.114L184.169 45.7146V42.1962H185.428V48.6774H184.169L183.114 45.159V48.6774H181.854Z" fill="white"/>
<path d="M187.429 46.0571L187.503 44.8257H189.058V47.3904C189.058 47.8595 188.953 48.199 188.744 48.4089C188.54 48.6126 188.2 48.7144 187.725 48.7144H187.225C186.75 48.7144 186.407 48.6126 186.197 48.4089C185.994 48.199 185.892 47.8595 185.892 47.3904V43.4832C185.892 43.0079 185.994 42.6684 186.197 42.4647C186.407 42.261 186.75 42.1592 187.225 42.1592H187.725C188.2 42.1592 188.54 42.261 188.744 42.4647C188.953 42.6684 189.058 43.0079 189.058 43.4832V44.3998L187.799 44.2609V43.4369C187.799 43.406 187.784 43.3906 187.753 43.3906H187.197C187.166 43.3906 187.151 43.406 187.151 43.4369V47.4367C187.151 47.4676 187.166 47.483 187.197 47.483H187.753C187.784 47.483 187.799 47.4676 187.799 47.4367V46.0571H187.429Z" fill="white"/>
<path d="M192.769 47.3904C192.769 47.8595 192.664 48.199 192.454 48.4089C192.25 48.6126 191.911 48.7144 191.435 48.7144H190.935C190.46 48.7144 190.117 48.6126 189.908 48.4089C189.704 48.199 189.602 47.8595 189.602 47.3904V43.4276H189.426L189.556 42.1962H190.861V47.4367C190.861 47.4676 190.877 47.483 190.908 47.483H191.463C191.494 47.483 191.509 47.4676 191.509 47.4367V42.1962H192.769V47.3904Z" fill="white"/>
<path d="M193.089 48.6774L193.858 43.4276H193.663L193.793 42.1962H195.95L196.904 48.6774H195.654L195.515 47.7515H194.478L194.339 48.6774H193.089ZM194.654 46.5201H195.339L194.996 44.2054L194.654 46.5201Z" fill="white"/>
<path d="M198.722 46.0571L198.796 44.8257H200.352V47.3904C200.352 47.8595 200.247 48.199 200.037 48.4089C199.833 48.6126 199.494 48.7144 199.018 48.7144H198.518C198.043 48.7144 197.7 48.6126 197.491 48.4089C197.287 48.199 197.185 47.8595 197.185 47.3904V43.4832C197.185 43.0079 197.287 42.6684 197.491 42.4647C197.7 42.261 198.043 42.1592 198.518 42.1592H199.018C199.494 42.1592 199.833 42.261 200.037 42.4647C200.247 42.6684 200.352 43.0079 200.352 43.4832V44.3998L199.092 44.2609V43.4369C199.092 43.406 199.077 43.3906 199.046 43.3906H198.491C198.46 43.3906 198.444 43.406 198.444 43.4369V47.4367C198.444 47.4676 198.46 47.483 198.491 47.483H199.046C199.077 47.483 199.092 47.4676 199.092 47.4367V46.0571H198.722Z" fill="white"/>
<path d="M200.896 48.6774V43.4276H200.72L200.85 42.1962H203.498L203.424 43.4276H202.155V44.8165H203.294L203.22 46.0479H202.155V47.4459H203.498L203.424 48.6774H200.896Z" fill="white"/>
<path d="M202.371 19.5305C202.371 26.0786 193.488 31.3869 182.53 31.3869C171.573 31.3869 162.69 26.0786 162.69 19.5305C162.69 12.9824 171.573 7.67417 182.53 7.67417C193.488 7.67417 202.371 12.9824 202.371 19.5305Z" fill="url(#paint2_linear_243_5424)"/>
<path d="M169.063 38.0959L169.567 28.5064L172.941 29.9125L176.578 30.8211L169.063 38.0959Z" fill="url(#paint3_linear_243_5424)"/>
<path d="M175.388 17.2636H177.187V19.3799H177.398C177.443 19.3799 177.465 19.3579 177.465 19.3138V18.8244L177.451 16.9197C177.451 16.8756 177.429 16.8536 177.385 16.8536H172.597C172.553 16.8536 172.531 16.8756 172.531 16.9197V21.8533C172.531 21.8974 172.553 21.9195 172.597 21.9195H177.398C177.443 21.9195 177.465 21.8974 177.465 21.8533V21.3375H179.078V22.3163C179.078 22.6866 178.964 22.9864 178.734 23.2157C178.505 23.4362 178.205 23.5464 177.835 23.5464H172.134C171.764 23.5464 171.464 23.4494 171.235 23.2554C171.005 23.0614 170.891 22.8057 170.891 22.4882V16.4568C170.891 16.0864 171.005 15.791 171.235 15.5706C171.464 15.3413 171.764 15.2267 172.134 15.2267H177.848C178.218 15.2267 178.518 15.3413 178.748 15.5706C178.977 15.791 179.091 16.0864 179.091 16.4568L179.078 18.5334H179.091V19.2477C179.091 19.8473 178.972 20.3146 178.734 20.6497C178.505 20.976 178.126 21.1391 177.597 21.1391H177.57L177.187 20.5703V21.6285H175.388V20.9275L174.912 21.6285H174.7C174.021 21.6285 173.532 21.483 173.232 21.192C172.941 20.8922 172.795 20.4072 172.795 19.737V19.1551C172.795 18.4761 172.941 17.9911 173.232 17.7001C173.523 17.4091 174.017 17.2636 174.713 17.2636C174.969 17.2636 175.194 17.3077 175.388 17.3959V17.2636ZM174.66 19.0228C174.616 19.0228 174.594 19.0448 174.594 19.0889V19.8032C174.594 19.8473 174.616 19.8693 174.66 19.8693H175.388V19.0228H174.66Z" fill="#1E1E1E"/>
<path d="M180.509 23.5464L180.628 21.7211H179.623V20.0942H180.734L180.787 19.2344H179.887V17.6075H180.892L181.025 15.6103H182.519L182.387 17.6075H183.048L183.181 15.6103H184.675L184.543 17.6075H185.442V19.2344H184.437L184.371 20.0942H185.178V21.7211H184.265L184.146 23.5464H182.665L182.784 21.7211H182.109L181.99 23.5464H180.509ZM182.215 20.0942H182.89L182.943 19.2344H182.281L182.215 20.0942Z" fill="#1E1E1E"/>
<path d="M186.864 23.5464L186.983 21.7211H185.978V20.0942H187.089L187.142 19.2344H186.242V17.6075H187.247L187.38 15.6103H188.874L188.742 17.6075H189.403L189.536 15.6103H191.03L190.898 17.6075H191.797V19.2344H190.792L190.726 20.0942H191.533V21.7211H190.62L190.501 23.5464H189.02L189.139 21.7211H188.464L188.345 23.5464H186.864ZM188.57 20.0942H189.245L189.298 19.2344H188.636L188.57 20.0942Z" fill="#1E1E1E"/>
<path d="M192.333 21.2846V15.6103H193.827V21.2846H192.333ZM192.333 23.5464V21.7475H193.827V23.5464H192.333Z" fill="#1E1E1E"/>
<path d="M105.153 0.399414H154.754V50.0001H105.153V0.399414Z" fill="#1E1E1E"/>
<path d="M107.137 1.7221H153.431V44.7093H107.137V1.7221Z" fill="#1E1E1E"/>
<path d="M138.172 9.34406C136.51 7.78991 134.35 7.01283 132.356 7.01283C130.362 7.01283 128.036 7.78991 126.541 9.34406L116.904 18.0473C113.581 21.1556 113.581 25.9735 116.904 29.0818C120.227 32.1901 125.378 32.1901 128.701 29.0818L138.172 20.2231C141.328 17.2702 141.328 12.297 138.172 9.34406ZM135.845 18.0473L131.193 22.399L125.212 16.9594L117.901 23.7977C117.901 22.5544 118.234 21.1556 119.397 20.2231L128.867 11.3645C129.698 10.5874 131.027 10.1211 132.19 10.1211C133.353 10.1211 134.682 10.5874 135.679 11.3645C137.673 13.3849 137.673 16.1823 135.845 18.0473ZM143.821 14.939C143.821 16.1823 143.488 17.2702 143.156 18.5136C144.818 20.3785 144.818 23.176 142.99 24.8856L138.338 29.2372L135.845 26.906L131.193 31.2576C129.033 33.278 126.043 34.3659 123.218 34.3659C123.55 34.8322 123.883 35.2984 124.381 35.7647C127.704 38.873 132.855 38.873 136.178 35.7647L145.648 26.906C148.971 23.7977 148.971 18.9798 145.648 15.8715C144.818 15.5607 144.319 15.2498 143.821 14.939Z" fill="url(#paint4_linear_243_5424)"/>
<path d="M124.461 47.3534C124.461 47.8225 124.356 48.162 124.146 48.3718C123.942 48.5755 123.603 48.6774 123.127 48.6774H121.387V43.4276H121.211L121.34 42.1962H123.127C123.603 42.1962 123.942 42.2981 124.146 42.5018C124.356 42.7055 124.461 43.0449 124.461 43.5202V47.3534ZM123.155 47.4459C123.186 47.4459 123.201 47.4305 123.201 47.3997V43.4739C123.201 43.4431 123.186 43.4276 123.155 43.4276H122.646V47.4459H123.155Z" fill="white"/>
<path d="M124.957 48.6774V43.4276H124.781L124.911 42.1962H126.605C127.08 42.1962 127.42 42.3012 127.624 42.511C127.833 42.7147 127.938 43.0511 127.938 43.5202V45.6312C127.938 46.1065 127.837 46.446 127.633 46.6497L128.207 48.6774H126.948L126.466 46.9552H126.216V48.6774H124.957ZM126.633 43.4276H126.216V45.7238H126.633C126.664 45.7238 126.679 45.7084 126.679 45.6775V43.4739C126.679 43.4431 126.664 43.4276 126.633 43.4276Z" fill="white"/>
<path d="M131.65 47.3904C131.65 47.8595 131.545 48.199 131.335 48.4089C131.131 48.6126 130.792 48.7144 130.317 48.7144H129.817C129.341 48.7144 128.999 48.6126 128.789 48.4089C128.585 48.199 128.483 47.8595 128.483 47.3904V43.4276H128.307L128.437 42.1962H129.743V47.4367C129.743 47.4676 129.758 47.483 129.789 47.483H130.344C130.375 47.483 130.391 47.4676 130.391 47.4367V42.1962H131.65V47.3904Z" fill="white"/>
<path d="M133.598 46.0571L133.672 44.8257H135.227V47.3904C135.227 47.8595 135.122 48.199 134.913 48.4089C134.709 48.6126 134.369 48.7144 133.894 48.7144H133.394C132.919 48.7144 132.576 48.6126 132.366 48.4089C132.163 48.199 132.061 47.8595 132.061 47.3904V43.4832C132.061 43.0079 132.163 42.6684 132.366 42.4647C132.576 42.261 132.919 42.1592 133.394 42.1592H133.894C134.369 42.1592 134.709 42.261 134.913 42.4647C135.122 42.6684 135.227 43.0079 135.227 43.4832V44.3998L133.968 44.2609V43.4369C133.968 43.406 133.953 43.3906 133.922 43.3906H133.366C133.335 43.3906 133.32 43.406 133.32 43.4369V47.4367C133.32 47.4676 133.335 47.483 133.366 47.483H133.922C133.953 47.483 133.968 47.4676 133.968 47.4367V46.0571H133.598Z" fill="white"/>
<path d="M136.899 46.6404V47.4737C136.899 47.5046 136.915 47.52 136.946 47.52H137.214C137.245 47.52 137.261 47.5046 137.261 47.4737L137.27 46.2423L136.224 45.7886C135.989 45.6837 135.832 45.5757 135.751 45.4646C135.677 45.3535 135.64 45.1837 135.64 44.9553V43.4462C135.64 42.9709 135.742 42.6314 135.946 42.4277C136.15 42.224 136.48 42.1222 136.937 42.1222H137.325C137.757 42.1407 138.066 42.2549 138.251 42.4647C138.436 42.6684 138.529 42.9956 138.529 43.4462V44.6035L137.27 44.4646V43.3999C137.27 43.369 137.254 43.3536 137.224 43.3536H136.946C136.915 43.3536 136.899 43.369 136.899 43.3999V44.7609L137.946 45.2146C138.18 45.3133 138.335 45.4214 138.409 45.5386C138.489 45.6497 138.529 45.8195 138.529 46.0479V47.4274C138.529 47.878 138.436 48.2083 138.251 48.4181C138.066 48.6218 137.757 48.7329 137.325 48.7514H136.955C136.486 48.7514 136.15 48.6496 135.946 48.4459C135.742 48.236 135.64 47.8965 135.64 47.4274V46.6404H136.899Z" fill="white"/>
<defs>
<linearGradient id="paint0_linear_243_5424" x1="24.8003" y1="0.399414" x2="24.8003" y2="50.0001" gradientUnits="userSpaceOnUse">
<stop stop-color="#D9D9D9"/>
<stop offset="1" stop-color="#D9D9D9" stop-opacity="0.56"/>
</linearGradient>
<linearGradient id="paint1_linear_243_5424" x1="77.3769" y1="0.399414" x2="77.3769" y2="50.0001" gradientUnits="userSpaceOnUse">
<stop stop-color="#D9D9D9"/>
<stop offset="1" stop-color="#D9D9D9" stop-opacity="0.56"/>
</linearGradient>
<linearGradient id="paint2_linear_243_5424" x1="182.53" y1="0.399414" x2="182.53" y2="50.0001" gradientUnits="userSpaceOnUse">
<stop stop-color="#D9D9D9"/>
<stop offset="1" stop-color="#D9D9D9" stop-opacity="0.56"/>
</linearGradient>
<linearGradient id="paint3_linear_243_5424" x1="182.53" y1="0.399414" x2="182.53" y2="50.0001" gradientUnits="userSpaceOnUse">
<stop stop-color="#D9D9D9"/>
<stop offset="1" stop-color="#D9D9D9" stop-opacity="0.56"/>
</linearGradient>
<linearGradient id="paint4_linear_243_5424" x1="129.954" y1="0.399414" x2="129.954" y2="50.0001" gradientUnits="userSpaceOnUse">
<stop stop-color="#D9D9D9"/>
<stop offset="1" stop-color="#D9D9D9" stop-opacity="0.56"/>
</linearGradient>
</defs>
</svg>
