<svg width="108" height="20" viewBox="0 0 108 20" fill="none" xmlns="http://www.w3.org/2000/svg">
<path d="M108 10C108 15.5228 103.523 20 98 20C92.4772 20 88 15.5228 88 10C88 4.47715 92.4772 0 98 0C103.523 0 108 4.47715 108 10Z" fill="#D9D9D9" fill-opacity="0.4"/>
<path d="M102.875 8.79247C103.708 9.27359 103.708 10.4764 102.875 10.9575L96.3125 14.7464C95.4792 15.2275 94.4375 14.6261 94.4375 13.6639L94.4375 6.08614C94.4375 5.12389 95.4792 4.52248 96.3125 5.00361L102.875 8.79247Z" fill="#D9D9D9"/>
<path d="M0.758523 15V6.27273H4.2017C4.86364 6.27273 5.42756 6.39915 5.89347 6.65199C6.35938 6.90199 6.71449 7.25 6.95881 7.69602C7.20597 8.1392 7.32955 8.65057 7.32955 9.23011C7.32955 9.80966 7.20455 10.321 6.95455 10.7642C6.70455 11.2074 6.34233 11.5526 5.8679 11.7997C5.39631 12.0469 4.82528 12.1705 4.15483 12.1705H1.96023V10.6918H3.85653C4.21165 10.6918 4.50426 10.6307 4.73438 10.5085C4.96733 10.3835 5.14063 10.2116 5.25426 9.9929C5.37074 9.77131 5.42898 9.51705 5.42898 9.23011C5.42898 8.94034 5.37074 8.6875 5.25426 8.47159C5.14063 8.25284 4.96733 8.08381 4.73438 7.96449C4.50142 7.84233 4.20597 7.78125 3.84801 7.78125H2.60369V15H0.758523ZM8.52805 15V6.27273H10.3732V13.4787H14.1147V15H8.52805ZM17.0636 15H15.0863L18.0991 6.27273H20.4769L23.4854 15H21.5082L19.3221 8.26705H19.2539L17.0636 15ZM16.94 11.5696H21.6104V13.0099H16.94V11.5696ZM23.1339 6.27273H25.2006L27.1907 10.0312H27.2759L29.266 6.27273H31.3327L28.1495 11.9148V15H26.3171V11.9148L23.1339 6.27273ZM36.6946 6.27273L38.804 12.9034H38.8849L40.9986 6.27273H43.044L40.0355 15H37.6577L34.6449 6.27273H36.6946ZM45.9396 6.27273V15H44.0945V6.27273H45.9396ZM50.5515 15H47.4577V6.27273H50.5771C51.4549 6.27273 52.2106 6.44744 52.8441 6.79688C53.4776 7.14347 53.9648 7.64205 54.3058 8.29261C54.6495 8.94318 54.8214 9.72159 54.8214 10.6278C54.8214 11.5369 54.6495 12.3182 54.3058 12.9716C53.9648 13.625 53.4748 14.1264 52.8356 14.4759C52.1992 14.8253 51.4379 15 50.5515 15ZM49.3029 13.419H50.4748C51.0202 13.419 51.479 13.3224 51.8512 13.1293C52.2262 12.9332 52.5075 12.6307 52.695 12.2216C52.8853 11.8097 52.9805 11.2784 52.9805 10.6278C52.9805 9.98295 52.8853 9.45597 52.695 9.04688C52.5075 8.63778 52.2276 8.33665 51.8555 8.14347C51.4833 7.95028 51.0245 7.85369 50.479 7.85369H49.3029V13.419ZM56.1882 15V6.27273H62.0689V7.79403H58.0334V9.87358H61.7663V11.3949H58.0334V13.4787H62.0859V15H56.1882ZM71.5558 10.6364C71.5558 11.5881 71.3754 12.3977 71.0146 13.0653C70.6566 13.733 70.168 14.2429 69.5487 14.5952C68.9322 14.9446 68.239 15.1193 67.4691 15.1193C66.6935 15.1193 65.9975 14.9432 65.381 14.5909C64.7646 14.2386 64.2773 13.7287 63.9194 13.0611C63.5614 12.3935 63.3825 11.5852 63.3825 10.6364C63.3825 9.68466 63.5614 8.875 63.9194 8.20739C64.2773 7.53977 64.7646 7.03125 65.381 6.68182C65.9975 6.32955 66.6935 6.15341 67.4691 6.15341C68.239 6.15341 68.9322 6.32955 69.5487 6.68182C70.168 7.03125 70.6566 7.53977 71.0146 8.20739C71.3754 8.875 71.5558 9.68466 71.5558 10.6364ZM69.685 10.6364C69.685 10.0199 69.5927 9.5 69.408 9.0767C69.2262 8.65341 68.9691 8.33239 68.6367 8.11364C68.3043 7.89489 67.9151 7.78551 67.4691 7.78551C67.0231 7.78551 66.6339 7.89489 66.3015 8.11364C65.9691 8.33239 65.7106 8.65341 65.5259 9.0767C65.3441 9.5 65.2532 10.0199 65.2532 10.6364C65.2532 11.2528 65.3441 11.7727 65.5259 12.196C65.7106 12.6193 65.9691 12.9403 66.3015 13.1591C66.6339 13.3778 67.0231 13.4872 67.4691 13.4872C67.9151 13.4872 68.3043 13.3778 68.6367 13.1591C68.9691 12.9403 69.2262 12.6193 69.408 12.196C69.5927 11.7727 69.685 11.2528 69.685 10.6364Z" fill="white" fill-opacity="0.55"/>
</svg>
