<svg width="27" height="24" viewBox="0 0 27 24" fill="none" xmlns="http://www.w3.org/2000/svg">
<g clip-path="url(#clip0_243_5513)">
<path d="M11.9011 0C5.62798 0 0.488568 4.86131 0 11.0383L6.39997 13.6968C6.94253 13.3252 7.59845 13.1055 8.30296 13.1055C8.36504 13.1055 8.42983 13.1082 8.49191 13.1109L11.3369 8.96575C11.3369 8.94676 11.3369 8.92777 11.3369 8.90607C11.3369 6.41031 13.356 4.38115 15.8393 4.38115C18.3227 4.38115 20.3417 6.41031 20.3417 8.90607C20.3417 11.4018 18.3227 13.431 15.8393 13.431C15.8042 13.431 15.7718 13.431 15.7368 13.4283L11.6797 16.3418C11.6824 16.3934 11.6824 16.4476 11.6824 16.5019C11.6824 18.3764 10.1655 19.8983 8.30296 19.8983C6.6672 19.8983 5.29867 18.7236 4.98825 17.1692L0.412989 15.2703C1.83011 20.3079 6.43506 24 11.9011 24C18.4954 24 23.8427 18.626 23.8427 11.9986C23.84 5.37403 18.4954 0 11.9011 0Z" fill="white"/>
<path d="M7.48508 18.2082L6.01938 17.5978C6.27851 18.1404 6.72928 18.5961 7.32582 18.8484C8.61608 19.3883 10.1061 18.7725 10.6432 17.4758C10.9051 16.8491 10.9051 16.1546 10.6459 15.5253C10.3868 14.8959 9.90093 14.4049 9.2774 14.1417C8.65657 13.8813 7.99254 13.8922 7.4068 14.1146L8.92109 14.744C9.87394 15.1428 10.322 16.2414 9.92522 17.199C9.53113 18.1567 8.43522 18.607 7.48508 18.2082Z" fill="white"/>
<path d="M18.8409 8.90878C18.8409 7.24584 17.494 5.89217 15.8393 5.89217C14.1847 5.89217 12.8377 7.24584 12.8377 8.90878C12.8377 10.5717 14.1847 11.9254 15.8393 11.9254C17.494 11.9227 18.8409 10.569 18.8409 8.90878ZM13.5908 8.90336C13.5908 7.65276 14.6004 6.63818 15.8447 6.63818C17.0891 6.63818 18.0986 7.65276 18.0986 8.90336C18.0986 10.1539 17.0891 11.1685 15.8447 11.1685C14.6004 11.1685 13.5908 10.1539 13.5908 8.90336Z" fill="white"/>
<path d="M36.594 8.2116L35.795 9.62496C35.1796 9.19091 34.3428 8.93048 33.614 8.93048C32.78 8.93048 32.2644 9.27772 32.2644 9.89895C32.2644 10.6531 33.1794 10.8294 34.5426 11.3204C36.0056 11.8413 36.8478 12.4517 36.8478 13.7972C36.8478 15.6392 35.4063 16.6755 33.3333 16.6755C32.3238 16.6755 31.1037 16.4123 30.1671 15.8399L30.7501 14.272C31.5113 14.6762 32.421 14.9149 33.2334 14.9149C34.3266 14.9149 34.8476 14.5107 34.8476 13.9112C34.8476 13.2248 34.054 13.0186 32.7746 12.5927C31.3169 12.1044 30.3047 11.4615 30.3047 9.96948C30.3047 8.28755 31.6436 7.3218 33.5708 7.3218C34.9151 7.32452 35.9948 7.75314 36.594 8.2116Z" fill="white"/>
<path d="M42.8482 9.1041V16.5209H40.9641V9.1041H38.2298V7.47915H45.5745V9.1041H42.8482Z" fill="white"/>
<path d="M49.5451 9.09868V11.136H53.1514V12.7609H49.5451V14.8823H53.729V16.5209H47.661V7.47915H53.729V9.09868H49.5451Z" fill="white"/>
<path d="M57.9318 14.7657L57.3352 16.5209H55.3594L58.7308 7.47915H60.6256L64.0942 16.5181H62.0536L61.4462 14.763L57.9318 14.7657ZM59.6728 9.63852L58.4446 13.2574H60.928L59.6728 9.63852Z" fill="white"/>
<path d="M73.7684 10.9759L71.3067 16.2577H70.2431L67.8219 11.022V16.5209H66.0161V7.47915H67.8165L70.8397 14.0061L73.7549 7.47915H75.5715V16.5209H73.7684V10.9759Z" fill="white"/>
<path d="M79.2128 8.62123C79.2128 9.39708 78.6325 9.88267 77.9685 9.88267C77.3017 9.88267 76.7214 9.3998 76.7214 8.62123C76.7214 7.84537 77.3017 7.36249 77.9685 7.36249C78.6352 7.36249 79.2128 7.84537 79.2128 8.62123ZM76.9292 8.62123C76.9292 9.27229 77.3962 9.67921 77.9685 9.67921C78.538 9.67921 79.0023 9.26958 79.0023 8.62123C79.0023 7.97016 78.538 7.56595 77.9685 7.56595C77.3989 7.56595 76.9292 7.97287 76.9292 8.62123ZM77.9874 7.9783C78.3113 7.9783 78.4193 8.1492 78.4193 8.33638C78.4193 8.50729 78.3194 8.62123 78.1979 8.67819L78.4867 9.22346H78.2492L78.0063 8.74059H77.7552V9.22346H77.5582V7.98101H77.9874V7.9783ZM77.7552 8.55612H77.9739C78.1169 8.55612 78.2006 8.4666 78.2006 8.35266C78.2006 8.23872 78.1412 8.16548 77.9739 8.16548H77.7552V8.55612Z" fill="white"/>
</g>
<defs>
<clipPath id="clip0_243_5513">
<rect width="26.9388" height="24" fill="white"/>
</clipPath>
</defs>
</svg>
